<svg width="24" height="22" viewBox="0 0 24 22" fill="none" xmlns="http://www.w3.org/2000/svg">
<path d="M11.9968 7.2863C9.79333 7.2863 7.99515 8.92444 7.99515 10.9318C7.99515 12.9391 9.79333 14.5773 11.9968 14.5773C14.2002 14.5773 15.9984 12.9391 15.9984 10.9318C15.9984 8.92444 14.2002 7.2863 11.9968 7.2863ZM23.9987 10.9318C23.9987 9.42217 24.0137 7.92624 23.9206 6.41937C23.8275 4.6691 23.3893 3.11574 21.9843 1.83586C20.5764 0.553241 18.8743 0.156697 16.953 0.071918C15.2959 -0.0128606 13.6539 0.000813448 11.9998 0.000813448C10.3427 0.000813448 8.70061 -0.0128606 7.04652 0.071918C5.12526 0.156697 3.42014 0.555976 2.01522 1.83586C0.607291 3.11848 0.172005 4.6691 0.0789442 6.41937C-0.014117 7.92898 0.000892919 9.42491 0.000892919 10.9318C0.000892919 12.4386 -0.014117 13.9373 0.0789442 15.4442C0.172005 17.1945 0.610293 18.7478 2.01522 20.0277C3.42314 21.3103 5.12526 21.7069 7.04652 21.7916C8.70361 21.8764 10.3457 21.8627 11.9998 21.8627C13.6569 21.8627 15.2989 21.8764 16.953 21.7916C18.8743 21.7069 20.5794 21.3076 21.9843 20.0277C23.3923 18.7451 23.8275 17.1945 23.9206 15.4442C24.0167 13.9373 23.9987 12.4414 23.9987 10.9318ZM11.9968 16.5408C8.58954 16.5408 5.83973 14.0358 5.83973 10.9318C5.83973 7.82779 8.58954 5.32272 11.9968 5.32272C15.404 5.32272 18.1538 7.82779 18.1538 10.9318C18.1538 14.0358 15.404 16.5408 11.9968 16.5408ZM18.406 6.40296C17.6105 6.40296 16.968 5.81772 16.968 5.093C16.968 4.36828 17.6105 3.78303 18.406 3.78303C19.2015 3.78303 19.8439 4.36828 19.8439 5.093C19.8442 5.26508 19.8071 5.43552 19.735 5.59455C19.6628 5.75358 19.5569 5.89808 19.4233 6.01976C19.2897 6.14145 19.1311 6.23793 18.9565 6.30369C18.782 6.36944 18.5949 6.40318 18.406 6.40296Z" fill="#512E0B"/>
</svg>
