<svg width="160" height="160" viewBox="0 0 160 160" fill="none" xmlns="http://www.w3.org/2000/svg">
<path d="M159.305 62.3008V62.3517L159.315 62.4016C159.431 62.9672 159.493 63.5399 159.5 64.1139V126.16C159.49 128.085 158.842 129.973 157.622 131.598L157.608 131.617L157.595 131.637C156.389 133.6 154.605 135.261 152.415 136.447C150.224 137.634 147.708 138.301 145.12 138.379L145.084 138.38L145.048 138.386C143.41 138.675 141.742 138.825 140.07 138.831H53.9017H53.7813L53.6741 138.886L14.3052 159.019L20.2767 139.329L20.4556 138.739L19.8415 138.686C19.0742 138.619 18.3039 138.519 17.5269 138.406L17.4913 138.401H17.4553H15.2039C11.7139 138.397 8.34595 137.321 5.69485 135.373C3.04485 133.426 1.28767 130.74 0.711984 127.798L0.709735 127.786L0.706951 127.775C0.576809 127.243 0.507555 126.702 0.500006 126.159L0.500006 13.2249L0.500005 13.2244C0.49837 11.5645 0.873016 9.91843 1.60507 8.37961C2.33726 6.84049 3.41362 5.43696 4.77653 4.25142C6.13955 3.06577 7.76171 2.12213 9.55175 1.47732C11.3418 0.832507 13.2624 0.499999 15.2034 0.5H144.627C148.545 0.505917 152.289 1.86417 155.037 4.25914C157.784 6.65225 159.308 9.87888 159.305 13.2244V13.2249V62.3008Z" fill="#0073F7" stroke="#0073F7"/>
<path d="M91.754 50.6711C96.1392 50.6711 99.6941 47.5815 99.6941 43.7702C99.6941 39.9589 96.1392 36.8693 91.754 36.8693C87.3688 36.8693 83.8139 39.9589 83.8139 43.7702C83.8139 47.5815 87.3688 50.6711 91.754 50.6711Z" fill="white"/>
<path d="M68.0377 36.881C68.0377 36.881 52.2095 40.9198 52.2095 55.6833C52.2095 55.6833 50.5304 65.7406 65.8379 71.0577L66.3716 71.2387C82.2388 76.5105 87.8099 78.4451 88.1093 84.5993C88.4087 90.7536 84.5688 97.1681 71.8256 95.1431C71.8256 95.1431 62.6228 95.0639 50.3872 72.2116C50.3872 72.2116 47.3544 88.8644 58.5747 100.596C58.5747 100.596 59.8763 97.3491 66.4627 97.96C73.0491 98.5709 89.8926 101.037 98.7308 96.9079C103.517 94.6746 107.152 90.9489 108.905 86.4803C110.659 82.0117 110.4 77.1319 108.181 72.8225C108.181 72.8225 105.955 66.6682 93.2118 62.4485C80.4686 58.2287 70.3677 54.5294 70.3677 54.5294C70.3677 54.5294 56.8044 49.2688 68.0377 36.881Z" fill="white"/>
<path d="M139.199 10.2836H20.8135C15.5009 10.2836 11.1942 14.0266 11.1942 18.6439V121.536C11.1942 126.153 15.5009 129.896 20.8135 129.896H139.199C144.512 129.896 148.819 126.153 148.819 121.536V18.6439C148.819 14.0266 144.512 10.2836 139.199 10.2836Z" stroke="white" stroke-miterlimit="10"/>
</svg>
