<svg width="119" height="124" viewBox="0 0 119 124" fill="none" xmlns="http://www.w3.org/2000/svg">
<rect y="0.288696" width="118.812" height="118.812" rx="16" fill="#A37E48"/>
<circle cx="59.3346" cy="59.623" r="51.8998" fill="white" fill-opacity="0.8"/>
<g filter="url(#filter0_d_129_97)">
<path d="M42.9734 85.265L81.7235 65.7442C81.7235 65.7442 105.452 75.1712 106.212 74.1918C107.415 72.6434 103.202 65.9216 95.0051 60.9486C86.3027 55.6694 82.2783 56.4495 81.6767 55.9722C81.075 55.4948 79.2543 51.7198 78.2585 51.0673C76.6402 50.0069 74.009 52.3912 70.8474 52.6691C67.2494 52.9877 60.3332 54.4317 60.3332 54.4317C60.3332 54.4317 60.4571 51.7609 59.1109 51.355C58.167 51.0705 52.9199 55.7221 50.3905 58.3248C49.4727 59.2649 46.283 61.9628 43.3463 66.3578C36.7608 76.2081 42.9734 85.265 42.9734 85.265Z" fill="#D3A093"/>
</g>
<g filter="url(#filter1_d_129_97)">
<path d="M31.4383 82.7003C32.341 83.2101 33.966 83.0804 35.094 82.3415C36.4498 81.4564 37.3463 79.9146 37.2399 79.3658C37.053 78.4091 33.4516 77.1169 33.1508 76.8783C32.3328 76.2292 31.1833 73.7435 31.1833 73.7435C31.1833 73.7435 36.4212 71.7591 37.302 66.5843C38.1128 61.8012 36.3198 58.6415 33.4274 55.2201C31.6059 53.0611 29.5329 51.1756 28.2098 48.9305C26.8866 46.6853 28.0442 45.4539 27.5845 45.2095C27.1248 44.9652 23.8739 47.6318 21.8833 51.7884C19.902 55.9438 16.897 63.1999 20.1684 69.2869C22.9935 74.5383 28.1574 74.2839 28.1574 74.2839C28.1574 74.2839 29.4821 77.1666 30.7011 78.6326C30.8491 78.793 30.679 82.2699 31.4383 82.7003Z" fill="#AC7A46"/>
</g>
<g filter="url(#filter2_d_129_97)">
<path d="M42.7934 49.3219C42.7934 49.3219 41.0817 51.4467 40.4463 51.7166C39.8108 51.9864 37.2349 52.6859 36.9635 52.9521C36.6921 53.2184 37.9201 55.0957 39.1758 56.2553C40.5772 57.5564 42.5403 58.0303 42.7454 57.7717C42.9506 57.5131 43.1864 54.1485 43.392 53.7269C43.6278 53.2346 45.6043 50.7867 45.6043 50.7867C45.6043 50.7867 49.264 52.9593 54.4556 50.9898C63.2306 47.6581 63.9936 38.8381 63.9936 38.8381L58.9482 37.1656L64.4309 35.3496C64.4309 35.3496 65.5784 31.8656 63.33 24.5865C60.99 17.0112 53.3354 10.1296 52.2799 11.1239C51.6227 11.7463 52.4365 13.4411 51.6036 17.6993C50.5624 23.022 45.8098 26.6384 42.9606 29.7527C40.1114 32.8669 37.5126 38.0717 39.3669 43.387C40.7507 47.3658 42.7934 49.3219 42.7934 49.3219Z" fill="#D88058"/>
</g>
<g filter="url(#filter3_d_129_97)">
<path d="M45.009 89.2024C45.009 89.2024 43.4661 90.1282 41.3545 91.1962C39.6368 92.0606 37.4778 92.5922 37.4778 92.5922C37.4778 92.5922 34.5078 97.5713 34.0385 97.8268C33.5692 98.0822 31.6105 95.8144 30.5333 93.7902C29.452 91.7713 28.8293 88.9468 29.4404 88.6318C30.0515 88.3169 34.0023 88.8544 35.8601 88.5396C37.718 88.2249 39.2905 87.5978 40.3169 86.9761C41.3392 86.3596 42.9173 85.2811 42.9173 85.2811C42.9173 85.2811 37.6575 77.6681 43.3833 68.8471C48.0541 61.6485 55.3895 57.9743 61.2084 57.0786C67.0272 56.1829 71.265 55.8817 72.7626 55.1865C74.2601 54.4913 76.9386 53.3916 77.5343 54.234C77.7756 54.5802 79.7929 58.3135 80.2046 58.6401C80.6162 58.9667 86.0579 59.2509 92.1666 62.1196C99.2082 65.4275 103.714 70.0776 104.758 71.3096C105.796 72.5375 107.065 74.0264 105.893 74.4204C104.882 74.7622 100.78 74.6209 96.9944 75.3064C92.8846 76.0532 89.6826 77.7695 89.6826 77.7695C89.6826 77.7695 90.9093 80.6348 90.3539 81.4324C89.768 82.2576 87.1973 82.1701 84.4618 83.2333C82.6119 83.9499 79.1878 85.6534 78.5974 86.3975C78.007 87.1417 78.8545 90.1274 78.3717 90.6817C77.8931 91.2307 75.6258 90.1972 71.3242 91.9011C67.573 93.3882 62.5033 97.4152 55.1911 95.6298C47.9126 93.8453 45.009 89.2024 45.009 89.2024Z" fill="#8E5032"/>
</g>
<g filter="url(#filter4_d_129_97)">
<path d="M20.9663 62.3523C21.2949 61.9165 26.8739 65.7237 26.8739 65.7237C26.8739 65.7237 31.3452 59.9147 32.0763 60.1422C33.2804 60.5214 28.9334 67.6587 27.7689 68.2484C26.6098 68.8422 20.1845 63.3918 20.9663 62.3523Z" fill="#D88058"/>
</g>
<g filter="url(#filter5_d_129_97)">
<path d="M28.9883 71.6753C30.4894 71.3442 29.0262 68.5493 27.8546 63.4575C26.092 55.8157 26.0431 51.2707 25.4563 51.0889C24.8696 50.9071 23.7536 56.9961 25.5011 64.0068C26.6722 68.7198 27.7679 71.9454 28.9883 71.6753Z" fill="#D88058"/>
</g>
<g filter="url(#filter6_d_129_97)">
<path d="M45.766 47.2771C46.3938 47.7323 49.8077 44.5242 53.2841 36.2404C56.7637 27.9419 55.5391 19.1016 55.0066 19.0575C54.3046 18.9993 53.6733 29.42 51.2153 35.0978C48.9313 40.3718 44.8606 46.619 45.766 47.2771Z" fill="#AB5731"/>
</g>
<g filter="url(#filter7_d_129_97)">
<path d="M60.4037 40.0575C60.298 39.6812 56.323 40.1823 53.5136 40.645C51.4528 40.9879 49.6053 41.2679 49.6053 41.2679C49.6053 41.2679 48.6898 39.3977 47.599 37.3799C46.1414 34.6755 44.7838 31.4657 44.0681 31.6632C43.4312 31.8373 44.5712 36.6546 45.6153 39.0997C46.6541 41.5407 48.0062 43.912 48.0062 43.912C48.0062 43.912 51.1303 43.7247 53.3566 43.1949C54.8396 42.8323 60.6909 41.0937 60.4037 40.0575ZM52.3398 33.7025C53.6069 34.5875 58.0459 30.9545 59.5203 29.4755C60.9947 27.9966 62.0904 26.8106 61.8213 26.3477C61.55 25.8659 53.5719 31.3692 53.5719 31.3692C53.5719 31.3692 51.8155 22.9498 51.1311 23.0862C50.4468 23.2225 50.4424 27.3469 50.7873 29.1341C51.1323 30.9214 51.6466 33.2213 52.3398 33.7025Z" fill="#AB5731"/>
</g>
<g filter="url(#filter8_d_129_97)">
<path d="M46.5947 85.9796C47.102 86.8034 50.6684 85.961 59.6476 81.0713C69.4981 75.712 78.1076 73.6077 84.3138 72.4947C92.6154 71.0061 96.3525 72.019 95.9994 71.0766C95.5495 69.8769 84.1908 68.0973 74.3801 71.0545C69.4957 72.5282 65.8429 74.1191 62.5079 75.7644C56.4093 78.7686 54.5196 80.305 52.8751 81.348C48.8096 83.9358 46.0821 85.1515 46.5947 85.9796Z" fill="#D3A093"/>
</g>
<g filter="url(#filter9_d_129_97)">
<path d="M85.557 79.7073C86.2308 79.0207 80.8745 76.19 78.0724 75.3428C75.2703 74.4955 71.9038 73.7853 71.9038 73.7853C71.9038 73.7853 73.495 70.7392 74.4517 68.2218C75.8457 64.5464 76.2266 58.8202 75.4257 58.7782C74.4513 58.7274 73.9316 62.6666 71.807 66.9921C69.748 71.1805 66.6301 75.5005 66.3541 75.9351C66.0948 76.3486 71.5838 76.0855 76.8211 77.3427C81.6688 78.5057 84.7973 80.4805 85.557 79.7073Z" fill="#D3A093"/>
</g>
<g filter="url(#filter10_d_129_97)">
<path d="M73.2901 88.0256C73.2137 86.8212 68.6465 83.7222 64.6992 82.5082C60.4792 81.2153 57.2405 80.1163 57.2405 80.1163C57.2405 80.1163 58.3663 77.776 59.3359 71.9149C60.3198 65.9706 58.2747 61.3295 57.229 61.3685C55.6153 61.4297 57.9122 65.8835 55.6039 73.1936C53.6612 79.349 50.5604 83.7342 50.5604 83.7342C50.5604 83.7342 55.1184 83.2571 62.3839 85.2205C68.9564 86.9952 73.3886 89.5056 73.2901 88.0256Z" fill="#D3A093"/>
</g>
<defs>
<filter id="filter0_d_129_97" x="36.3196" y="50.7971" width="74.095" height="42.4679" filterUnits="userSpaceOnUse" color-interpolation-filters="sRGB">
<feFlood flood-opacity="0" result="BackgroundImageFix"/>
<feColorMatrix in="SourceAlpha" type="matrix" values="0 0 0 0 0 0 0 0 0 0 0 0 0 0 0 0 0 0 127 0" result="hardAlpha"/>
<feOffset dy="4"/>
<feGaussianBlur stdDeviation="2"/>
<feComposite in2="hardAlpha" operator="out"/>
<feColorMatrix type="matrix" values="0 0 0 0 0.733333 0 0 0 0 0.635294 0 0 0 0 0.498039 0 0 0 1 0"/>
<feBlend mode="normal" in2="BackgroundImageFix" result="effect1_dropShadow_129_97"/>
<feBlend mode="normal" in="SourceGraphic" in2="effect1_dropShadow_129_97" result="shape"/>
</filter>
<filter id="filter1_d_129_97" x="14.7168" y="45.194" width="26.7808" height="45.813" filterUnits="userSpaceOnUse" color-interpolation-filters="sRGB">
<feFlood flood-opacity="0" result="BackgroundImageFix"/>
<feColorMatrix in="SourceAlpha" type="matrix" values="0 0 0 0 0 0 0 0 0 0 0 0 0 0 0 0 0 0 127 0" result="hardAlpha"/>
<feOffset dy="4"/>
<feGaussianBlur stdDeviation="2"/>
<feComposite in2="hardAlpha" operator="out"/>
<feColorMatrix type="matrix" values="0 0 0 0 0.733333 0 0 0 0 0.635294 0 0 0 0 0.498039 0 0 0 1 0"/>
<feBlend mode="normal" in2="BackgroundImageFix" result="effect1_dropShadow_129_97"/>
<feBlend mode="normal" in="SourceGraphic" in2="effect1_dropShadow_129_97" result="shape"/>
</filter>
<filter id="filter2_d_129_97" x="32.9255" y="11.0278" width="35.7981" height="54.8119" filterUnits="userSpaceOnUse" color-interpolation-filters="sRGB">
<feFlood flood-opacity="0" result="BackgroundImageFix"/>
<feColorMatrix in="SourceAlpha" type="matrix" values="0 0 0 0 0 0 0 0 0 0 0 0 0 0 0 0 0 0 127 0" result="hardAlpha"/>
<feOffset dy="4"/>
<feGaussianBlur stdDeviation="2"/>
<feComposite in2="hardAlpha" operator="out"/>
<feColorMatrix type="matrix" values="0 0 0 0 0.733333 0 0 0 0 0.635294 0 0 0 0 0.498039 0 0 0 1 0"/>
<feBlend mode="normal" in2="BackgroundImageFix" result="effect1_dropShadow_129_97"/>
<feBlend mode="normal" in="SourceGraphic" in2="effect1_dropShadow_129_97" result="shape"/>
</filter>
<filter id="filter3_d_129_97" x="25.2" y="53.9295" width="85.1624" height="51.9171" filterUnits="userSpaceOnUse" color-interpolation-filters="sRGB">
<feFlood flood-opacity="0" result="BackgroundImageFix"/>
<feColorMatrix in="SourceAlpha" type="matrix" values="0 0 0 0 0 0 0 0 0 0 0 0 0 0 0 0 0 0 127 0" result="hardAlpha"/>
<feOffset dy="4"/>
<feGaussianBlur stdDeviation="2"/>
<feComposite in2="hardAlpha" operator="out"/>
<feColorMatrix type="matrix" values="0 0 0 0 0.733333 0 0 0 0 0.635294 0 0 0 0 0.498039 0 0 0 1 0"/>
<feBlend mode="normal" in2="BackgroundImageFix" result="effect1_dropShadow_129_97"/>
<feBlend mode="normal" in="SourceGraphic" in2="effect1_dropShadow_129_97" result="shape"/>
</filter>
<filter id="filter4_d_129_97" x="16.9006" y="60.1357" width="19.3843" height="16.1578" filterUnits="userSpaceOnUse" color-interpolation-filters="sRGB">
<feFlood flood-opacity="0" result="BackgroundImageFix"/>
<feColorMatrix in="SourceAlpha" type="matrix" values="0 0 0 0 0 0 0 0 0 0 0 0 0 0 0 0 0 0 127 0" result="hardAlpha"/>
<feOffset dy="4"/>
<feGaussianBlur stdDeviation="2"/>
<feComposite in2="hardAlpha" operator="out"/>
<feColorMatrix type="matrix" values="0 0 0 0 0.733333 0 0 0 0 0.635294 0 0 0 0 0.498039 0 0 0 1 0"/>
<feBlend mode="normal" in2="BackgroundImageFix" result="effect1_dropShadow_129_97"/>
<feBlend mode="normal" in="SourceGraphic" in2="effect1_dropShadow_129_97" result="shape"/>
</filter>
<filter id="filter5_d_129_97" x="20.5615" y="51.0849" width="13.0654" height="28.6062" filterUnits="userSpaceOnUse" color-interpolation-filters="sRGB">
<feFlood flood-opacity="0" result="BackgroundImageFix"/>
<feColorMatrix in="SourceAlpha" type="matrix" values="0 0 0 0 0 0 0 0 0 0 0 0 0 0 0 0 0 0 127 0" result="hardAlpha"/>
<feOffset dy="4"/>
<feGaussianBlur stdDeviation="2"/>
<feComposite in2="hardAlpha" operator="out"/>
<feColorMatrix type="matrix" values="0 0 0 0 0.733333 0 0 0 0 0.635294 0 0 0 0 0.498039 0 0 0 1 0"/>
<feBlend mode="normal" in2="BackgroundImageFix" result="effect1_dropShadow_129_97"/>
<feBlend mode="normal" in="SourceGraphic" in2="effect1_dropShadow_129_97" result="shape"/>
</filter>
<filter id="filter6_d_129_97" x="41.6367" y="19.0573" width="18.019" height="36.262" filterUnits="userSpaceOnUse" color-interpolation-filters="sRGB">
<feFlood flood-opacity="0" result="BackgroundImageFix"/>
<feColorMatrix in="SourceAlpha" type="matrix" values="0 0 0 0 0 0 0 0 0 0 0 0 0 0 0 0 0 0 127 0" result="hardAlpha"/>
<feOffset dy="4"/>
<feGaussianBlur stdDeviation="2"/>
<feComposite in2="hardAlpha" operator="out"/>
<feColorMatrix type="matrix" values="0 0 0 0 0.733333 0 0 0 0 0.635294 0 0 0 0 0.498039 0 0 0 1 0"/>
<feBlend mode="normal" in2="BackgroundImageFix" result="effect1_dropShadow_129_97"/>
<feBlend mode="normal" in="SourceGraphic" in2="effect1_dropShadow_129_97" result="shape"/>
</filter>
<filter id="filter7_d_129_97" x="39.8843" y="23.0845" width="25.9778" height="28.8275" filterUnits="userSpaceOnUse" color-interpolation-filters="sRGB">
<feFlood flood-opacity="0" result="BackgroundImageFix"/>
<feColorMatrix in="SourceAlpha" type="matrix" values="0 0 0 0 0 0 0 0 0 0 0 0 0 0 0 0 0 0 127 0" result="hardAlpha"/>
<feOffset dy="4"/>
<feGaussianBlur stdDeviation="2"/>
<feComposite in2="hardAlpha" operator="out"/>
<feColorMatrix type="matrix" values="0 0 0 0 0.733333 0 0 0 0 0.635294 0 0 0 0 0.498039 0 0 0 1 0"/>
<feBlend mode="normal" in2="BackgroundImageFix" result="effect1_dropShadow_129_97"/>
<feBlend mode="normal" in="SourceGraphic" in2="effect1_dropShadow_129_97" result="shape"/>
</filter>
<filter id="filter8_d_129_97" x="42.533" y="69.4391" width="57.4893" height="24.8171" filterUnits="userSpaceOnUse" color-interpolation-filters="sRGB">
<feFlood flood-opacity="0" result="BackgroundImageFix"/>
<feColorMatrix in="SourceAlpha" type="matrix" values="0 0 0 0 0 0 0 0 0 0 0 0 0 0 0 0 0 0 127 0" result="hardAlpha"/>
<feOffset dy="4"/>
<feGaussianBlur stdDeviation="2"/>
<feComposite in2="hardAlpha" operator="out"/>
<feColorMatrix type="matrix" values="0 0 0 0 0.733333 0 0 0 0 0.635294 0 0 0 0 0.498039 0 0 0 1 0"/>
<feBlend mode="normal" in2="BackgroundImageFix" result="effect1_dropShadow_129_97"/>
<feBlend mode="normal" in="SourceGraphic" in2="effect1_dropShadow_129_97" result="shape"/>
</filter>
<filter id="filter9_d_129_97" x="62.3452" y="58.7777" width="27.2698" height="29.1044" filterUnits="userSpaceOnUse" color-interpolation-filters="sRGB">
<feFlood flood-opacity="0" result="BackgroundImageFix"/>
<feColorMatrix in="SourceAlpha" type="matrix" values="0 0 0 0 0 0 0 0 0 0 0 0 0 0 0 0 0 0 127 0" result="hardAlpha"/>
<feOffset dy="4"/>
<feGaussianBlur stdDeviation="2"/>
<feComposite in2="hardAlpha" operator="out"/>
<feColorMatrix type="matrix" values="0 0 0 0 0.733333 0 0 0 0 0.635294 0 0 0 0 0.498039 0 0 0 1 0"/>
<feBlend mode="normal" in2="BackgroundImageFix" result="effect1_dropShadow_129_97"/>
<feBlend mode="normal" in="SourceGraphic" in2="effect1_dropShadow_129_97" result="shape"/>
</filter>
<filter id="filter10_d_129_97" x="46.5603" y="61.3682" width="30.7314" height="35.1057" filterUnits="userSpaceOnUse" color-interpolation-filters="sRGB">
<feFlood flood-opacity="0" result="BackgroundImageFix"/>
<feColorMatrix in="SourceAlpha" type="matrix" values="0 0 0 0 0 0 0 0 0 0 0 0 0 0 0 0 0 0 127 0" result="hardAlpha"/>
<feOffset dy="4"/>
<feGaussianBlur stdDeviation="2"/>
<feComposite in2="hardAlpha" operator="out"/>
<feColorMatrix type="matrix" values="0 0 0 0 0.733333 0 0 0 0 0.635294 0 0 0 0 0.498039 0 0 0 1 0"/>
<feBlend mode="normal" in2="BackgroundImageFix" result="effect1_dropShadow_129_97"/>
<feBlend mode="normal" in="SourceGraphic" in2="effect1_dropShadow_129_97" result="shape"/>
</filter>
</defs>
</svg>
