<svg width="24" height="24" viewBox="0 0 24 24" fill="none" xmlns="http://www.w3.org/2000/svg">
<path d="M4.70553 0.00600052C2.12033 0.00600052 0.00448608 2.12179 0.00448608 4.70705V19.2952C0.00448608 21.8804 2.12028 23.9955 4.70553 23.9955H19.2937C21.8789 23.9955 23.994 21.8805 23.994 19.2952V4.70705C23.994 2.12184 21.8789 0.00600052 19.2937 0.00600052H4.70553ZM5.88792 3.96475C7.12747 3.96475 7.89098 4.77849 7.91455 5.84815C7.91455 6.89419 7.12742 7.7308 5.86394 7.7308H5.84068C4.62472 7.7308 3.8388 6.89424 3.8388 5.84815C3.8388 4.77852 4.64851 3.96475 5.88789 3.96475H5.88792ZM16.5698 8.96419C18.9537 8.96419 20.7408 10.5223 20.7408 13.8706V20.1214H17.1179V14.2897C17.1179 12.8243 16.5936 11.8245 15.2825 11.8245C14.2816 11.8245 13.685 12.4984 13.4231 13.1494C13.3274 13.3822 13.3039 13.7075 13.3039 14.0333V20.1214H9.68099C9.68099 20.1214 9.72854 10.2427 9.68099 9.21984H13.3046V10.7636C13.786 10.0208 14.6472 8.96416 16.5698 8.96416V8.96419ZM4.05249 9.22063H7.67536V20.1215H4.05249V9.22063Z" fill="#512E0B"/>
</svg>
