<svg width="180" height="180" viewBox="0 0 180 180" fill="none" xmlns="http://www.w3.org/2000/svg">
<path d="M18.2812 108.745L81.0281 75.9797L150.75 77.625C152.972 78.9047 152.564 81.4359 153.872 81.4922C153.942 81.4922 159.778 84.5437 162.436 84.3328C166.641 83.9953 170.044 83.8547 175.219 83.8266C178.045 83.8125 179.17 87.4547 176.836 89.0578C158.02 101.953 143.353 120.248 132.666 140.878C132.427 141.3 131.822 141.567 131.133 141.75H19.9547C19.2656 141.469 18.6469 141.033 18.4359 140.752C15.0328 136.28 11.5453 125.03 8.35312 120.783C7.17186 119.194 7.12967 117.028 8.36717 115.481C10.0125 113.456 14.2453 112.022 17.8594 109.575C21.2344 107.283 18.2812 108.745 18.2812 108.745Z" fill="#856331"/>
<path d="M12.8672 111.164L17.8031 108.759C17.7469 105.145 17.4234 99.8578 17.55 95.7516C17.6484 92.9953 27.6469 87.5109 30.2906 85.5703C35.1422 82.0125 48.4172 72.2953 48.4172 72.2953C48.4172 72.2953 48.8812 66.1641 49.3453 61.2563C49.5 59.6531 52.7766 58.5563 54.7734 58.6406C56.0391 58.6969 56.3484 59.7797 56.3484 59.7797L57.2062 67.1625C57.2062 67.1625 71.1422 58.3172 77.6531 54.0844C85.8094 48.7687 89.6766 47.7703 99.4922 47.5875C99.5062 47.3906 99.5203 47.025 99.5203 46.5328C99.5203 46.1109 99.5203 45.5906 99.4922 45.0422C99.4922 44.9297 99.4781 44.8172 99.4781 44.6906C99.3797 43.0313 101.236 41.7516 101.236 41.7516C101.236 41.7516 111.431 35.4797 115.242 34.8891C119.067 34.2984 119.447 39.0094 119.447 39.0094V47.6156C124.805 47.7141 130.148 47.8969 135.464 48.2906C137.672 48.4453 141.384 48.8109 141.384 53.3391C141.384 54.7734 141.033 61.9172 141.005 63.4922C140.991 64.2938 140.203 65.1375 139.219 65.7703C140.105 66.2906 140.92 66.825 141.947 67.5844C143.93 69.0328 160.509 83.2781 162.408 84.3609C162.408 84.3609 156.164 84.2203 146.967 84.5859C140.836 84.8391 108.562 85.5844 93.9234 86.175C86.6531 86.4703 80.55 89.325 80.55 89.325L7.875 116.227C7.91718 116.198 7.77657 114.089 12.8672 111.164Z" fill="#D0B996"/>
<path d="M4.45786 146.039H168.258C170.086 146.039 171.591 144.534 171.591 142.706C171.591 140.878 170.086 139.373 168.258 139.373H4.45786C2.62973 139.373 1.12505 140.878 1.12505 142.706C1.12505 144.534 2.61566 146.039 4.45786 146.039Z" fill="#A37E48"/>
<path d="M102.445 75.9234C100.322 73.1812 98.7328 70.7766 98.7328 70.7766C98.7328 70.7766 97.4109 69.1172 101.658 69.1172C105.23 69.1172 130.964 69.1734 130.964 69.1734C130.964 69.1734 132.567 68.8219 135.098 70.3547C135.098 70.3547 138.375 72.9703 140.991 74.7C142.312 75.5859 142.903 77.5125 141.033 77.5125C132.455 77.5125 112.345 77.3859 106.833 77.5125C104.569 77.5687 103.5 77.3016 102.445 75.9234ZM134.353 62.1H125.93C124.959 62.1 124.172 61.3125 124.172 60.3422V53.5078C124.172 52.5375 124.959 51.75 125.93 51.75H134.353C135.323 51.75 136.111 52.5375 136.111 53.5078V60.3422C136.111 61.3125 135.323 62.1 134.353 62.1ZM119.377 60.2578C119.377 61.2281 118.589 62.0156 117.619 62.0156H109.195C108.225 62.0156 107.437 61.2281 107.437 60.2578V53.4234C107.437 52.4531 108.225 51.6656 109.195 51.6656H117.619C118.589 51.6656 119.377 52.4531 119.377 53.4234V60.2578ZM102.628 60.1734C102.628 61.1437 101.841 61.9312 100.87 61.9312H92.4469C91.4766 61.9312 90.6891 61.1437 90.6891 60.1734V53.3391C90.6891 52.3687 91.4766 51.5812 92.4469 51.5812H100.87C101.841 51.5812 102.628 52.3687 102.628 53.3391V60.1734ZM34.0172 94.9781L83.475 69.8203L83.5031 75.0234L34.0312 98.114L34.0172 94.9781ZM33.8625 100.575L83.5594 78.539V83.6437L33.8625 102.544V100.575ZM34.3266 92.5172C33.75 92.8547 33.0188 92.4469 33.0188 91.7719V87.9609C33.0188 87.6656 33.1594 87.3984 33.4125 87.2297L34.7063 86.3859C34.8372 86.3009 34.9888 86.2528 35.1448 86.247C35.3009 86.2411 35.4556 86.2776 35.5926 86.3526C35.7296 86.4275 35.8437 86.5382 35.9229 86.6728C36.002 86.8075 36.0433 86.961 36.0422 87.1172V91.0125C36.0422 91.3219 35.8734 91.6031 35.6203 91.7578L34.3266 92.5172ZM60.5953 69.4547C60.7263 69.3696 60.8778 69.3216 61.0339 69.3157C61.1899 69.3098 61.3447 69.3463 61.4817 69.4213C61.6187 69.4963 61.7328 69.607 61.812 69.7416C61.8911 69.8762 61.9323 70.0298 61.9313 70.1859V75.825C61.9313 76.1344 61.7625 76.4156 61.5094 76.5703L57.3609 79.0031C56.7844 79.3406 56.0531 78.9328 56.0531 78.2578V72.9C56.0531 72.6047 56.1937 72.3375 56.4469 72.1687L60.5953 69.4547ZM44.1703 86.2453C44.1703 86.5547 44.0016 86.8359 43.7484 86.9906L40.8797 88.6781C40.3031 89.0156 39.5719 88.6078 39.5719 87.9328V83.6859C39.5719 83.3906 39.7125 83.1234 39.9656 82.9547L42.8344 81.0844C42.9653 80.9993 43.1169 80.9513 43.273 80.9454C43.429 80.9395 43.5837 80.976 43.7207 81.051C43.8577 81.126 43.9719 81.2367 44.051 81.3713C44.1302 81.5059 44.1714 81.6594 44.1703 81.8156V86.2453ZM52.5375 76.3172V81.3234C52.5375 81.6328 52.3687 81.9141 52.1156 82.0687L48.9937 83.8969C48.4172 84.2344 47.6859 83.8265 47.6859 83.1516V78.3562C47.6859 78.0609 47.8266 77.7937 48.0797 77.625L51.2016 75.5859C51.3328 75.5023 51.4841 75.4555 51.6396 75.4503C51.7952 75.4452 51.9492 75.4819 52.0857 75.5566C52.2222 75.6313 52.3362 75.7413 52.4156 75.8751C52.4951 76.0089 52.5372 76.1616 52.5375 76.3172ZM71.2547 70.3406C71.2547 70.65 71.0859 70.9312 70.8328 71.0859L66.7688 73.4765C66.1922 73.8141 65.4609 73.4062 65.4609 72.7312V66.7406C65.4609 66.4453 65.6016 66.1781 65.8547 66.0094L69.9187 63.3515C70.0497 63.2665 70.2013 63.2185 70.3573 63.2126C70.5134 63.2067 70.6681 63.2432 70.8051 63.3182C70.9421 63.3932 71.0562 63.5038 71.1354 63.6385C71.2145 63.7731 71.2558 63.9266 71.2547 64.0828V70.3406ZM83.2922 63.2672C83.2922 63.5766 83.1234 63.8578 82.8703 64.0125L76.0781 67.9922C75.5016 68.3297 74.7703 67.9219 74.7703 67.2469V60.6234C74.7703 60.3281 74.9109 60.0609 75.1641 59.8922L81.9562 55.4484C82.0872 55.3634 82.2388 55.3153 82.3948 55.3095C82.5509 55.3036 82.7056 55.3401 82.8426 55.4151C82.9796 55.49 83.0937 55.6007 83.1729 55.7353C83.252 55.87 83.2933 56.0235 83.2922 56.1797V63.2672Z" fill="white"/>
<path d="M99.4781 47.5312C99.4781 47.5312 99.4781 47.4609 99.4922 47.3484C99.5063 47.1515 99.5203 46.7859 99.5203 46.2937C102.741 44.8031 110.447 41.3718 112.317 41.175C114.525 40.9359 118.758 41.0906 119.461 41.1187V47.6015L99.4781 47.5312Z" fill="#856331"/>
<path d="M112.177 39.825C109.983 40.05 102.248 43.5375 99.4922 44.8031C99.4922 44.6906 99.4781 44.5781 99.4781 44.4516C99.3797 42.7922 101.236 41.5125 101.236 41.5125C101.236 41.5125 111.431 35.2406 115.242 34.65C119.067 34.0594 119.447 38.7703 119.447 38.7703V39.7547C119.109 39.7406 114.637 39.5578 112.177 39.825Z" fill="#856331"/>
<path d="M112.317 41.175C110.433 41.3719 102.741 44.8031 99.5203 46.2937C99.5203 45.8719 99.5203 45.3515 99.4922 44.8031C102.248 43.5375 109.983 40.05 112.177 39.825C114.637 39.5719 119.095 39.7406 119.461 39.7547V41.1187C118.758 41.0906 114.539 40.9359 112.317 41.175Z" fill="white"/>
<path d="M81.0562 102.783C86.9484 100.744 96.9328 100.477 97.0312 100.477L152.142 99.1265C154.083 99.0843 160.552 92.264 158.555 92.3062L96.8484 93.4453C96.3984 93.4593 85.6547 93.7406 78.75 96.1312C63.9 101.278 14.1891 118.842 13.6828 118.997C11.8266 119.559 11.25 121.022 11.4328 121.781C11.6156 122.541 12.7828 123.708 15.0047 123.159C17.2265 122.625 66.0656 107.972 81.0562 102.783ZM125.93 132.047C127.237 132.047 128.489 131.316 129.094 130.064C135.591 116.634 143.437 109.42 143.522 109.35C144.212 108.723 144.625 107.848 144.669 106.917C144.714 105.987 144.387 105.076 143.761 104.386C142.453 102.952 140.245 102.839 138.797 104.133C138.431 104.456 132.145 111.783 125.002 126.534C124.158 128.278 123.131 131.105 124.875 131.948C125.395 132.173 125.423 132.047 125.93 132.047Z" fill="#A37E48"/>
</svg>
