<svg width="479" height="137" viewBox="0 0 479 137" fill="none" xmlns="http://www.w3.org/2000/svg">
<path d="M28.4377 104.59C344.9 66.388 437.328 83.6937 443.984 97.1219" stroke="#4A2E0C"/>
<g filter="url(#filter0_d_116_182)">
<path d="M104.392 56.9547C104.533 56.8844 104.661 56.8492 104.779 56.8492C104.908 56.8492 105.007 56.8961 105.077 56.9899C105.148 57.0719 105.183 57.1774 105.183 57.3063C105.183 57.4703 105.118 57.6578 104.99 57.8688C104.861 58.068 104.661 58.2496 104.392 58.4137C103.712 58.8824 103.027 59.3278 102.335 59.7496C101.656 60.1598 100.958 60.5465 100.243 60.9098C99.6341 61.2262 98.9896 61.5309 98.3099 61.8239C97.6302 62.1168 96.9329 62.3805 96.2181 62.6149C95.515 62.8492 94.8001 63.0367 94.0735 63.1774C93.3587 63.318 92.6614 63.3883 91.9818 63.3883C91.0443 63.3883 90.2122 63.2418 89.4857 62.9489C89.2396 63.3707 88.9876 63.7809 88.7298 64.1793C88.4837 64.566 88.2376 64.9469 87.9915 65.3219C89.1985 65.9899 90.3704 66.6637 91.5071 67.3434C92.6556 68.0348 93.7337 68.6969 94.7415 69.3297C95.761 69.9742 96.6985 70.5836 97.554 71.1578C98.4212 71.7321 99.1771 72.2418 99.8216 72.6871C100.466 73.1324 100.988 73.5016 101.386 73.7946C101.784 74.0875 102.031 74.275 102.124 74.3571C102.406 74.5914 102.605 74.8375 102.722 75.0953C102.851 75.3649 102.915 75.611 102.915 75.8336C102.915 76.0328 102.868 76.1969 102.775 76.3258C102.681 76.4547 102.552 76.5192 102.388 76.5192C102.189 76.5192 101.978 76.443 101.755 76.2906C101.544 76.1383 101.304 75.8746 101.034 75.4996C100.859 75.277 100.548 74.984 100.103 74.6207C99.6575 74.2574 99.1068 73.8414 98.4505 73.3727C97.7943 72.9039 97.0384 72.3942 96.1829 71.8434C95.3392 71.3043 94.4251 70.7477 93.4407 70.1735C92.4564 69.5992 91.4193 69.0133 90.3294 68.4156C89.2396 67.8297 88.1204 67.2614 86.972 66.7106C86.0931 67.859 85.1732 68.8492 84.2122 69.6813C83.263 70.525 82.261 71.2223 81.2064 71.7731C80.1517 72.3239 79.0325 72.7281 77.8489 72.986C76.6771 73.2555 75.4232 73.3903 74.0872 73.3903C72.6224 73.3903 71.3392 73.1617 70.2376 72.7047C69.1478 72.2477 68.2396 71.65 67.513 70.9117C66.7864 70.1852 66.2415 69.3531 65.8782 68.4156C65.515 67.4899 65.3333 66.5524 65.3333 65.6031C65.3333 64.4547 65.4739 63.4821 65.7552 62.6852C66.0364 61.8766 66.4349 61.2262 66.9505 60.734C67.4661 60.2301 68.0872 59.8668 68.8138 59.6442C69.5403 59.4098 70.3431 59.2926 71.222 59.2926C72.1712 59.2926 73.1966 59.4098 74.2982 59.6442C75.3997 59.8785 76.5482 60.2008 77.7435 60.611C78.9388 61.0211 80.1634 61.5074 81.4173 62.0699C82.6829 62.6207 83.9427 63.2125 85.1966 63.8453C85.4661 63.4352 85.7239 63.0192 85.97 62.5973C86.2161 62.1754 86.4622 61.7477 86.7083 61.3141C86.5443 61.1617 86.4095 61.0094 86.304 60.8571C86.2103 60.7047 86.1634 60.5465 86.1634 60.3824C86.1634 60.1481 86.3099 59.8785 86.6028 59.5739C86.9075 59.2692 87.3997 58.9938 88.0794 58.7477C88.8997 57.1422 89.6732 55.5133 90.3997 53.861C91.1263 52.1969 91.806 50.5856 92.4388 49.027C93.0833 47.4684 93.6868 46.0035 94.2493 44.6324C94.8118 43.2496 95.3333 42.0485 95.8138 41.0289C96.306 39.9977 96.7571 39.1891 97.1673 38.6031C97.5892 38.0055 97.9759 37.7067 98.3275 37.7067C97.2962 37.7067 96.1126 37.6188 94.7767 37.443C93.4525 37.2672 92.0579 37.0446 90.5931 36.775C89.14 36.5055 87.6575 36.2184 86.1458 35.9137C84.6341 35.5973 83.181 35.3043 81.7864 35.0348C80.3919 34.7653 79.0911 34.5426 77.8841 34.3668C76.6888 34.191 75.6693 34.1031 74.8255 34.1031C73.7825 34.1031 72.8978 34.2379 72.1712 34.5074C71.4446 34.777 70.8528 35.1403 70.3958 35.5973C69.9388 36.0426 69.6048 36.5641 69.3939 37.1617C69.1946 37.7594 69.095 38.3864 69.095 39.0426C69.095 39.8746 69.2474 40.7184 69.5521 41.5739C69.8568 42.4176 70.2669 43.1852 70.7825 43.8766C71.3099 44.5563 71.9193 45.1129 72.6107 45.5465C73.3021 45.9801 74.0403 46.1969 74.8255 46.1969C76.3255 46.1969 77.556 46.068 78.5169 45.8102C79.4896 45.5524 80.263 45.2301 80.8372 44.8434C81.4114 44.4449 81.8275 44.0172 82.0853 43.5602C82.3548 43.1031 82.5364 42.6813 82.6302 42.2946C82.7239 41.8961 82.7708 41.568 82.7708 41.3102C82.7825 41.0524 82.8235 40.9235 82.8939 40.9235C83.011 40.9235 83.1282 40.9703 83.2454 41.0641C83.3743 41.1578 83.4857 41.2809 83.5794 41.4332C83.6732 41.5739 83.7493 41.7379 83.8079 41.9254C83.8665 42.1012 83.8958 42.2711 83.8958 42.4352C83.8958 43.3844 83.6849 44.2281 83.263 44.9664C82.8528 45.693 82.2962 46.3082 81.5931 46.8121C80.9017 47.3043 80.1048 47.6793 79.2025 47.9371C78.3001 48.1949 77.3685 48.3239 76.4075 48.3239C74.9427 48.3239 73.6243 48.0543 72.4525 47.5153C71.2806 46.9762 70.2786 46.2789 69.4466 45.4235C68.6263 44.5563 67.9935 43.5953 67.5482 42.5406C67.1028 41.4742 66.8802 40.4137 66.8802 39.359C66.8802 38.5387 67.0267 37.7477 67.3196 36.986C67.6126 36.2242 68.0696 35.5563 68.6907 34.9821C69.3235 34.3961 70.1204 33.9332 71.0814 33.5934C72.054 33.2418 73.2083 33.066 74.5443 33.066C75.6224 33.066 76.7767 33.1422 78.0071 33.2946C79.2376 33.4469 80.5091 33.6403 81.8216 33.8746C83.1458 34.0973 84.4876 34.3434 85.847 34.6129C87.2181 34.8824 88.5833 35.1344 89.9427 35.3688C91.3021 35.5914 92.638 35.7789 93.9505 35.9313C95.2747 36.0836 96.5403 36.1598 97.7474 36.1598C99.1302 36.1598 100.513 36.0367 101.896 35.7906C103.29 35.5328 104.761 35.0992 106.308 34.4899C106.425 34.5485 106.554 34.6188 106.695 34.7008C106.847 34.7828 106.982 34.8766 107.099 34.9821C107.228 35.0758 107.333 35.1813 107.415 35.2985C107.497 35.4039 107.538 35.5153 107.538 35.6324C107.538 35.8199 107.404 35.9957 107.134 36.1598C106.548 36.5114 106.033 36.7926 105.587 37.0035C105.142 37.2028 104.732 37.361 104.357 37.4781C103.982 37.5953 103.618 37.6715 103.267 37.7067C102.915 37.7418 102.546 37.7594 102.159 37.7594C101.761 37.7594 101.333 37.7535 100.876 37.7418C100.419 37.7184 99.8743 37.7067 99.2415 37.7067C97.7767 42.4528 96.3704 46.6891 95.0228 50.4156C93.6868 54.1305 92.3333 57.3766 90.9622 60.1539L91.0325 60.2418C91.3489 60.7106 91.7415 61.0446 92.2103 61.2438C92.6907 61.443 93.2298 61.5426 93.8275 61.5426C94.3431 61.5426 94.888 61.4781 95.4622 61.3492C96.0482 61.2086 96.6341 61.0328 97.22 60.8219C97.8177 60.611 98.4095 60.3707 98.9954 60.1012C99.5814 59.8199 100.138 59.5387 100.665 59.2574C101.298 58.9176 101.919 58.5602 102.529 58.1852C103.138 57.7985 103.759 57.3883 104.392 56.9547ZM74.6321 71.8082C75.5345 71.8082 76.4075 71.65 77.2513 71.3336C78.095 71.0289 78.9095 70.5895 79.6946 70.0153C80.4915 69.4528 81.2532 68.7789 81.9798 67.9938C82.7181 67.2086 83.4329 66.3414 84.1243 65.3922C82.9876 64.8883 81.8509 64.4254 80.7142 64.0035C79.5892 63.5699 78.4935 63.2008 77.4271 62.8961C76.3607 62.5797 75.3411 62.3336 74.3685 62.1578C73.3958 61.9821 72.4935 61.8942 71.6614 61.8942C70.9583 61.8942 70.3431 61.9996 69.8157 62.2106C69.3001 62.4215 68.8724 62.7028 68.5325 63.0543C68.1927 63.4059 67.9349 63.816 67.7591 64.2848C67.595 64.7535 67.513 65.2399 67.513 65.7438C67.513 66.4352 67.6653 67.1383 67.97 67.8531C68.2747 68.5797 68.7259 69.236 69.3235 69.8219C69.9212 70.4078 70.6653 70.8824 71.556 71.2457C72.4466 71.6207 73.472 71.8082 74.6321 71.8082ZM108.031 61.7887C108.031 61.3903 108.048 60.9567 108.083 60.4879C108.13 60.0074 108.183 59.5094 108.242 58.9938C108.312 58.4664 108.394 57.9391 108.488 57.4117C108.581 56.8727 108.681 56.3453 108.786 55.8297L104.392 58.4137C104.275 58.4957 104.146 58.5367 104.005 58.5367C103.865 58.5367 103.747 58.4899 103.654 58.3961C103.548 58.3024 103.495 58.1852 103.495 58.0446C103.495 57.8805 103.566 57.7106 103.706 57.5348C103.835 57.3473 104.064 57.1539 104.392 56.9547L108.962 54.0895C109.15 53.5504 109.419 52.8239 109.771 51.9098C110.122 50.9957 110.556 49.9821 111.072 48.8688C111.587 47.7555 112.185 46.5778 112.865 45.3356C113.544 44.0934 114.312 42.8629 115.167 41.6442C116.023 40.4254 116.96 39.2653 117.98 38.1637C118.999 37.0504 120.101 36.0719 121.284 35.2281C122.48 34.3844 123.757 33.7164 125.117 33.2242C126.488 32.7203 127.947 32.4684 129.493 32.4684C130.806 32.4684 131.949 32.5621 132.921 32.7496C133.894 32.9254 134.697 33.1774 135.329 33.5055C135.962 33.8336 136.431 34.2203 136.736 34.6656C137.052 35.0992 137.21 35.5739 137.21 36.0895C137.21 36.8981 136.859 37.7477 136.156 38.6383C135.464 39.5172 134.427 40.3785 133.044 41.2223L113.04 53.5446L111.986 60.3121C112.583 59.9489 113.181 59.5856 113.779 59.2223C114.376 58.8473 114.939 58.4899 115.466 58.15C116.005 57.8102 116.492 57.4996 116.925 57.2184C117.37 56.9254 117.728 56.6793 117.997 56.4801C118.126 56.3629 118.296 56.2281 118.507 56.0758C118.73 55.9235 118.976 55.7828 119.245 55.6539C119.527 55.525 119.826 55.4137 120.142 55.3199C120.458 55.2262 120.786 55.1793 121.126 55.1793C121.372 55.1793 121.618 55.2086 121.865 55.2672C122.111 55.3141 122.327 55.4313 122.515 55.6188C122.714 55.8063 122.872 56.0758 122.99 56.4274C123.118 56.7789 123.183 57.2535 123.183 57.8512V62.3864C123.3 62.316 123.517 62.1871 123.833 61.9996C124.161 61.8004 124.554 61.566 125.011 61.2965C125.468 61.027 125.966 60.734 126.505 60.4176C127.056 60.1012 127.607 59.7848 128.158 59.4684L132.411 56.9547C132.658 56.8141 132.868 56.7438 133.044 56.7438C133.314 56.7438 133.449 56.8785 133.449 57.1481C133.449 57.3356 133.367 57.5406 133.202 57.7633C133.05 57.9742 132.786 58.191 132.411 58.4137C131.122 59.1754 129.886 59.902 128.702 60.5934C127.531 61.2848 126.464 61.9 125.503 62.4391C124.554 62.9781 123.745 63.4176 123.077 63.7574C122.409 64.0856 121.941 64.2731 121.671 64.3199C121.542 64.3434 121.408 64.361 121.267 64.3727C121.126 64.3844 120.986 64.3903 120.845 64.3903C120.423 64.3903 120.077 64.3317 119.808 64.2145C119.55 64.109 119.345 63.9625 119.193 63.775C119.052 63.5758 118.952 63.3531 118.894 63.1071C118.847 62.861 118.824 62.5973 118.824 62.316C118.824 62.0465 118.87 61.7653 118.964 61.4723C119.07 61.1676 119.146 60.8336 119.193 60.4703L119.685 56.6207C117.915 57.8629 116.298 58.9645 114.833 59.9254C114.318 60.3356 113.808 60.7281 113.304 61.1031C112.8 61.4781 112.337 61.8121 111.915 62.1051C111.505 62.3981 111.148 62.6324 110.843 62.8082C110.538 62.9723 110.333 63.0543 110.228 63.0543C110.005 63.0543 109.765 63.0426 109.507 63.0192C109.249 62.9957 109.009 62.943 108.786 62.861C108.576 62.7672 108.394 62.6383 108.242 62.4742C108.101 62.2985 108.031 62.0699 108.031 61.7887ZM113.357 51.2946C114.833 50.2985 116.368 49.2731 117.962 48.2184C119.556 47.152 121.167 46.0973 122.796 45.0543C124.437 44.0114 126.066 42.9918 127.683 41.9957C129.312 40.9879 130.894 40.0446 132.429 39.1656C133.32 38.4977 134.005 37.8766 134.486 37.3024C134.966 36.7281 135.206 36.2125 135.206 35.7555C135.206 35.1696 134.761 34.7067 133.87 34.3668C132.98 34.0153 131.568 33.8395 129.634 33.8395C128.732 33.8395 127.829 34.0153 126.927 34.3668C126.025 34.7067 125.134 35.1754 124.255 35.7731C123.388 36.3707 122.544 37.0739 121.724 37.8824C120.904 38.6793 120.124 39.5348 119.386 40.4489C118.648 41.3629 117.956 42.3121 117.312 43.2965C116.667 44.2692 116.081 45.2301 115.554 46.1793C115.038 47.1285 114.593 48.0426 114.218 48.9215C113.843 49.8004 113.556 50.5914 113.357 51.2946ZM132.411 58.4137C132.329 58.4606 132.253 58.484 132.183 58.484C132.066 58.484 131.978 58.4371 131.919 58.3434C131.861 58.2379 131.831 58.109 131.831 57.9567C131.831 57.7926 131.872 57.6168 131.954 57.4293C132.036 57.2418 132.189 57.0836 132.411 56.9547L138.915 53.1227C139.724 52.6539 140.585 52.2496 141.499 51.9098C142.413 51.5699 143.339 51.2946 144.277 51.0836C145.226 50.861 146.163 50.7028 147.089 50.609C148.015 50.5035 148.888 50.4508 149.708 50.4508C150.177 50.4508 150.617 50.486 151.027 50.5563C151.437 50.6149 151.788 50.7086 152.081 50.8375C152.386 50.9547 152.62 51.1012 152.784 51.277C152.96 51.4528 153.048 51.652 153.048 51.8746C153.048 52.0387 152.99 52.1559 152.872 52.2262C152.755 52.2965 152.615 52.3492 152.451 52.3844C152.298 52.4078 152.134 52.4254 151.958 52.4371C151.794 52.4489 151.665 52.4781 151.572 52.525C151.501 52.7477 151.39 53.0934 151.238 53.5621C151.085 54.0192 150.933 54.4938 150.781 54.986C150.628 55.4664 150.488 55.9 150.359 56.2867C150.242 56.6617 150.177 56.8785 150.165 56.9371C150.013 57.4293 149.802 58.0563 149.533 58.818C149.275 59.568 148.988 60.5758 148.671 61.8414C148.683 61.8414 148.812 61.777 149.058 61.6481C149.316 61.5074 149.644 61.3258 150.042 61.1031C150.452 60.8805 150.915 60.6227 151.431 60.3297C151.947 60.0367 152.48 59.7379 153.031 59.4332L157.232 56.9547C157.396 56.861 157.536 56.8141 157.654 56.8141C157.783 56.8141 157.882 56.861 157.952 56.9547C158.023 57.0367 158.058 57.1422 158.058 57.2711C158.058 57.4352 157.993 57.6285 157.865 57.8512C157.736 58.0621 157.525 58.2496 157.232 58.4137L147.88 63.8981C147.646 64.0387 147.429 64.1383 147.23 64.1969C147.031 64.2555 146.849 64.2848 146.685 64.2848C146.451 64.2848 146.251 64.2321 146.087 64.1266C145.923 64.0211 145.788 63.8746 145.683 63.6871C145.577 63.4996 145.495 63.2887 145.437 63.0543C145.39 62.8082 145.367 62.5504 145.367 62.2809C145.367 61.9879 145.396 61.6949 145.454 61.402C145.513 61.109 145.589 60.8278 145.683 60.5582C145.343 61.2262 144.945 61.8063 144.488 62.2985C144.042 62.7906 143.562 63.2067 143.046 63.5465C142.542 63.8746 142.021 64.1207 141.482 64.2848C140.943 64.4489 140.415 64.5309 139.9 64.5309C139.384 64.5309 138.898 64.4489 138.441 64.2848C137.984 64.1207 137.579 63.8805 137.228 63.5641C136.888 63.236 136.618 62.8317 136.419 62.3512C136.22 61.8707 136.12 61.3141 136.12 60.6813C136.12 60.3063 136.156 59.8903 136.226 59.4332C136.308 58.9762 136.413 58.5133 136.542 58.0446C136.671 57.5758 136.818 57.1188 136.982 56.6735C137.146 56.2164 137.316 55.8004 137.492 55.4254L132.411 58.4137ZM148.39 51.9449C147.452 51.9449 146.556 52.1031 145.701 52.4196C144.845 52.736 144.048 53.152 143.31 53.6676C142.583 54.1832 141.921 54.775 141.324 55.443C140.738 56.0992 140.234 56.7789 139.812 57.4821C139.402 58.1735 139.079 58.859 138.845 59.5387C138.622 60.2184 138.511 60.8278 138.511 61.3668C138.511 61.9645 138.64 62.4508 138.898 62.8258C139.167 63.1891 139.601 63.3707 140.199 63.3707C140.55 63.3707 140.931 63.2653 141.341 63.0543C141.763 62.8317 142.185 62.5446 142.607 62.193C143.04 61.8297 143.462 61.4254 143.872 60.9801C144.294 60.5231 144.681 60.066 145.033 59.609C145.384 59.1403 145.689 58.6891 145.947 58.2555C146.216 57.8102 146.409 57.4235 146.527 57.0953L148.39 51.9449ZM178.484 52.7887C178.038 52.7887 177.482 52.9176 176.814 53.1754C176.146 53.4215 175.413 53.7672 174.617 54.2125C173.82 54.6461 172.988 55.1617 172.12 55.7594C171.265 56.3571 170.421 57.0074 169.589 57.7106C168.769 58.4137 167.984 59.1578 167.234 59.943C166.495 60.7164 165.851 61.4957 165.3 62.2809C165.242 62.3395 165.212 62.4742 165.212 62.6852C165.212 62.8844 165.177 63.0953 165.107 63.318C165.048 63.5406 164.925 63.7399 164.738 63.9156C164.55 64.0914 164.24 64.1793 163.806 64.1793C163.501 64.1793 163.261 64.1442 163.085 64.0739C162.921 64.0035 162.792 63.9098 162.699 63.7926C162.617 63.6637 162.564 63.5172 162.54 63.3531C162.517 63.1774 162.505 62.984 162.505 62.7731C162.505 62.5621 162.564 62.2516 162.681 61.8414C162.798 61.4313 162.951 60.9567 163.138 60.4176C163.326 59.8785 163.536 59.2985 163.771 58.6774C164.005 58.0563 164.24 57.4352 164.474 56.8141C164.72 56.193 164.949 55.5895 165.159 55.0035C165.382 54.4176 165.57 53.8903 165.722 53.4215L157.232 58.4137C157.173 58.4254 157.126 58.4371 157.091 58.4489C157.044 58.4489 157.009 58.4489 156.986 58.4489C156.822 58.4489 156.704 58.4078 156.634 58.3258C156.552 58.2321 156.511 58.1207 156.511 57.9918C156.511 57.8278 156.576 57.652 156.704 57.4645C156.822 57.2653 156.997 57.0953 157.232 56.9547C158.99 55.9117 160.437 55.0563 161.574 54.3883C162.722 53.7086 163.642 53.1637 164.333 52.7535C165.025 52.3434 165.54 52.0387 165.88 51.8395C166.232 51.6403 166.495 51.4938 166.671 51.4C166.835 51.3063 166.982 51.2418 167.111 51.2067C167.251 51.1715 167.404 51.1539 167.568 51.1539C167.908 51.1539 168.183 51.2535 168.394 51.4528C168.617 51.652 168.728 51.8746 168.728 52.1207C168.728 52.3668 168.652 52.7067 168.499 53.1403C168.347 53.5621 168.159 54.025 167.937 54.5289C167.714 55.0328 167.486 55.5485 167.251 56.0758C167.017 56.5914 166.818 57.0719 166.654 57.5172C166.583 57.693 166.525 57.8395 166.478 57.9567C166.443 58.0621 166.396 58.1852 166.337 58.3258C166.29 58.4664 166.22 58.6481 166.126 58.8707C166.033 59.0817 165.898 59.3805 165.722 59.7672C166.214 59.1344 166.788 58.4723 167.445 57.7809C168.113 57.0895 168.833 56.4156 169.607 55.7594C170.392 55.0914 171.224 54.4586 172.103 53.861C172.993 53.2633 173.908 52.7418 174.845 52.2965C175.794 51.8395 176.761 51.4821 177.745 51.2242C178.73 50.9547 179.708 50.8199 180.681 50.8199C181.279 50.8199 181.689 50.9489 181.911 51.2067C182.146 51.4528 182.263 51.7926 182.263 52.2262C182.263 52.5778 182.199 53.0055 182.07 53.5094C181.941 54.0133 181.765 54.5641 181.542 55.1617C181.32 55.7477 181.068 56.3805 180.786 57.0602C180.505 57.7281 180.206 58.4078 179.89 59.0992C179.585 59.7789 179.275 60.4645 178.958 61.1559C178.654 61.8473 178.367 62.5094 178.097 63.1422C178.765 62.8727 179.462 62.5211 180.189 62.0875C180.915 61.6539 181.689 61.1676 182.509 60.6285C183.341 60.0895 184.214 59.5094 185.128 58.8883C186.054 58.2555 187.044 57.611 188.099 56.9547C188.181 56.9078 188.292 56.8844 188.433 56.8844C188.714 56.8844 188.855 57.0426 188.855 57.359C188.855 57.5231 188.79 57.7047 188.661 57.9039C188.533 58.0914 188.345 58.2614 188.099 58.4137C186.704 59.2809 185.445 60.1071 184.32 60.8922C183.195 61.6774 182.163 62.3746 181.226 62.984C180.3 63.5934 179.451 64.0739 178.677 64.4254C177.915 64.7887 177.206 64.9703 176.55 64.9703C176.152 64.9703 175.812 64.9176 175.531 64.8121C175.249 64.7184 175.015 64.5895 174.827 64.4254C174.652 64.2614 174.517 64.068 174.423 63.8453C174.341 63.611 174.3 63.3707 174.3 63.1246C174.3 62.8551 174.353 62.5914 174.458 62.3336C174.576 62.0641 174.734 61.777 174.933 61.4723C175.296 60.6754 175.701 59.8434 176.146 58.9762C176.591 58.0973 177.001 57.2653 177.376 56.4801C177.751 55.6949 178.068 54.9977 178.326 54.3883C178.583 53.7789 178.712 53.3395 178.712 53.0699C178.712 52.8824 178.636 52.7887 178.484 52.7887ZM191.738 61.7887C191.738 61.3903 191.755 60.9567 191.79 60.4879C191.837 60.0074 191.89 59.5094 191.949 58.9938C192.019 58.4664 192.101 57.9391 192.195 57.4117C192.288 56.8727 192.388 56.3453 192.493 55.8297L188.099 58.4137C187.982 58.4957 187.853 58.5367 187.712 58.5367C187.572 58.5367 187.454 58.4899 187.361 58.3961C187.255 58.3024 187.202 58.1852 187.202 58.0446C187.202 57.8805 187.273 57.7106 187.413 57.5348C187.542 57.3473 187.771 57.1539 188.099 56.9547L192.669 54.0895C192.857 53.5504 193.126 52.8239 193.478 51.9098C193.829 50.9957 194.263 49.9821 194.779 48.8688C195.294 47.7555 195.892 46.5778 196.572 45.3356C197.251 44.0934 198.019 42.8629 198.874 41.6442C199.73 40.4254 200.667 39.2653 201.687 38.1637C202.706 37.0504 203.808 36.0719 204.992 35.2281C206.187 34.3844 207.464 33.7164 208.824 33.2242C210.195 32.7203 211.654 32.4684 213.201 32.4684C214.513 32.4684 215.656 32.5621 216.628 32.7496C217.601 32.9254 218.404 33.1774 219.036 33.5055C219.669 33.8336 220.138 34.2203 220.443 34.6656C220.759 35.0992 220.917 35.5739 220.917 36.0895C220.917 36.8981 220.566 37.7477 219.863 38.6383C219.171 39.5172 218.134 40.3785 216.751 41.2223L196.747 53.5446L195.693 60.3121C196.29 59.9489 196.888 59.5856 197.486 59.2223C198.083 58.8473 198.646 58.4899 199.173 58.15C199.712 57.8102 200.199 57.4996 200.632 57.2184C201.077 56.9254 201.435 56.6793 201.704 56.4801C201.833 56.3629 202.003 56.2281 202.214 56.0758C202.437 55.9235 202.683 55.7828 202.952 55.6539C203.234 55.525 203.533 55.4137 203.849 55.3199C204.165 55.2262 204.493 55.1793 204.833 55.1793C205.079 55.1793 205.326 55.2086 205.572 55.2672C205.818 55.3141 206.034 55.4313 206.222 55.6188C206.421 55.8063 206.579 56.0758 206.697 56.4274C206.826 56.7789 206.89 57.2535 206.89 57.8512V62.3864C207.007 62.316 207.224 62.1871 207.54 61.9996C207.868 61.8004 208.261 61.566 208.718 61.2965C209.175 61.027 209.673 60.734 210.212 60.4176C210.763 60.1012 211.314 59.7848 211.865 59.4684L216.118 56.9547C216.365 56.8141 216.576 56.7438 216.751 56.7438C217.021 56.7438 217.156 56.8785 217.156 57.1481C217.156 57.3356 217.074 57.5406 216.909 57.7633C216.757 57.9742 216.493 58.191 216.118 58.4137C214.829 59.1754 213.593 59.902 212.409 60.5934C211.238 61.2848 210.171 61.9 209.21 62.4391C208.261 62.9781 207.452 63.4176 206.784 63.7574C206.117 64.0856 205.648 64.2731 205.378 64.3199C205.249 64.3434 205.115 64.361 204.974 64.3727C204.833 64.3844 204.693 64.3903 204.552 64.3903C204.13 64.3903 203.784 64.3317 203.515 64.2145C203.257 64.109 203.052 63.9625 202.9 63.775C202.759 63.5758 202.659 63.3531 202.601 63.1071C202.554 62.861 202.531 62.5973 202.531 62.316C202.531 62.0465 202.577 61.7653 202.671 61.4723C202.777 61.1676 202.853 60.8336 202.9 60.4703L203.392 56.6207C201.622 57.8629 200.005 58.9645 198.54 59.9254C198.025 60.3356 197.515 60.7281 197.011 61.1031C196.507 61.4781 196.044 61.8121 195.622 62.1051C195.212 62.3981 194.855 62.6324 194.55 62.8082C194.245 62.9723 194.04 63.0543 193.935 63.0543C193.712 63.0543 193.472 63.0426 193.214 63.0192C192.956 62.9957 192.716 62.943 192.493 62.861C192.283 62.7672 192.101 62.6383 191.949 62.4742C191.808 62.2985 191.738 62.0699 191.738 61.7887ZM197.064 51.2946C198.54 50.2985 200.076 49.2731 201.669 48.2184C203.263 47.152 204.874 46.0973 206.503 45.0543C208.144 44.0114 209.773 42.9918 211.39 41.9957C213.019 40.9879 214.601 40.0446 216.136 39.1656C217.027 38.4977 217.712 37.8766 218.193 37.3024C218.673 36.7281 218.913 36.2125 218.913 35.7555C218.913 35.1696 218.468 34.7067 217.577 34.3668C216.687 34.0153 215.275 33.8395 213.341 33.8395C212.439 33.8395 211.536 34.0153 210.634 34.3668C209.732 34.7067 208.841 35.1754 207.962 35.7731C207.095 36.3707 206.251 37.0739 205.431 37.8824C204.611 38.6793 203.831 39.5348 203.093 40.4489C202.355 41.3629 201.663 42.3121 201.019 43.2965C200.374 44.2692 199.788 45.2301 199.261 46.1793C198.745 47.1285 198.3 48.0426 197.925 48.9215C197.55 49.8004 197.263 50.5914 197.064 51.2946Z" fill="#4A2E0C"/>
</g>
<g filter="url(#filter1_d_116_182)">
<path d="M279.103 64.0444C279.244 63.9741 279.372 63.939 279.49 63.939C279.619 63.939 279.718 63.9858 279.788 64.0796C279.859 64.1616 279.894 64.2671 279.894 64.396C279.894 64.5601 279.829 64.7476 279.701 64.9585C279.572 65.1577 279.372 65.3394 279.103 65.5034C278.435 65.9019 277.726 66.3237 276.976 66.769C276.238 67.2144 275.488 67.6655 274.726 68.1226C273.976 68.5679 273.226 69.0015 272.476 69.4233C271.738 69.8335 271.035 70.2026 270.367 70.5308C269.71 70.8472 269.107 71.1108 268.556 71.3218C268.017 71.5327 267.56 71.6558 267.185 71.6909C267.185 71.7378 267.038 71.8433 266.746 72.0073C266.453 72.1831 266.089 72.3647 265.656 72.5522C265.234 72.7397 264.783 72.9097 264.302 73.062C263.822 73.2144 263.394 73.2905 263.019 73.2905C262.726 73.2905 262.48 73.2261 262.281 73.0972C262.093 72.98 261.999 72.769 261.999 72.4644C261.999 72.4409 262.005 72.3999 262.017 72.3413C262.029 72.2827 262.035 72.2358 262.035 72.2007L257.693 46.7124C256.146 50.6616 254.751 54.2417 253.509 57.4526C252.279 60.6519 251.089 63.4585 249.941 65.8726C250.984 66.1187 251.88 66.4409 252.63 66.8394C253.392 67.2378 254.019 67.6948 254.511 68.2104C255.003 68.7144 255.367 69.2769 255.601 69.8979C255.835 70.519 255.953 71.1694 255.953 71.8491C255.953 72.5874 255.806 73.3843 255.513 74.2397C255.232 75.1069 254.833 75.98 254.318 76.8589C253.814 77.7495 253.21 78.6284 252.507 79.4956C251.804 80.3628 251.037 81.1714 250.204 81.9214C250.111 82.0034 249.97 82.103 249.783 82.2202C249.607 82.3491 249.413 82.4722 249.203 82.5894C249.003 82.7065 248.804 82.8062 248.605 82.8882C248.417 82.9702 248.265 83.0112 248.148 83.0112C248.042 83.0112 247.99 82.9644 247.99 82.8706C247.99 82.7651 248.072 82.5659 248.236 82.2729C248.869 81.1948 249.542 80.1812 250.257 79.2319C250.984 78.2827 251.646 77.3745 252.244 76.5073C252.853 75.6519 253.357 74.8315 253.755 74.0464C254.154 73.2612 254.353 72.4878 254.353 71.7261C254.353 71.1636 254.259 70.6362 254.072 70.144C253.884 69.6401 253.585 69.189 253.175 68.7905C252.777 68.3804 252.261 68.0288 251.628 67.7358C251.007 67.4429 250.251 67.2144 249.361 67.0503C248.88 68.5854 248.189 69.9155 247.287 71.0405C246.396 72.1655 245.406 73.0972 244.316 73.8354C243.226 74.5854 242.089 75.1421 240.906 75.5054C239.734 75.8687 238.626 76.0503 237.583 76.0503C236.904 76.0503 236.277 75.9741 235.703 75.8218C235.117 75.6694 234.613 75.4409 234.191 75.1362C233.757 74.8433 233.417 74.4741 233.171 74.0288C232.925 73.5952 232.802 73.0854 232.802 72.4995C232.802 71.9956 232.943 71.4683 233.224 70.9175C233.505 70.355 233.898 69.8042 234.402 69.2651C234.906 68.7261 235.509 68.2163 236.212 67.7358C236.915 67.2554 237.689 66.8335 238.533 66.4702C239.376 66.1069 240.279 65.8198 241.24 65.6089C242.201 65.3862 243.191 65.2749 244.21 65.2749C244.703 65.2749 245.171 65.2866 245.617 65.3101C246.062 65.3335 246.49 65.3628 246.9 65.3979C247.568 64.062 248.236 62.6558 248.904 61.1792C249.572 59.7026 250.234 58.2144 250.89 56.7144C251.546 55.2144 252.191 53.7261 252.824 52.2495C253.468 50.7729 254.095 49.3667 254.704 48.0308C255.326 46.6831 255.929 45.4409 256.515 44.3042C257.101 43.1558 257.663 42.1655 258.203 41.3335C258.742 40.5015 259.257 39.8511 259.749 39.3823C260.253 38.9019 260.728 38.6616 261.173 38.6616C261.431 38.6616 261.648 38.7144 261.824 38.8198C261.999 38.9136 262.134 39.0425 262.228 39.2065C262.333 39.3589 262.404 39.5405 262.439 39.7515C262.486 39.9624 262.509 40.1733 262.509 40.3843C262.509 40.5718 262.497 40.7593 262.474 40.9468C262.451 41.1226 262.427 41.2866 262.404 41.439C262.38 41.5796 262.357 41.7026 262.333 41.8081C262.31 41.9019 262.298 41.9546 262.298 41.9663L266.763 68.2104L276.29 44.1636C276.466 43.7417 276.677 43.2964 276.923 42.8276C277.181 42.3472 277.462 41.9077 277.767 41.5093C278.072 41.0991 278.4 40.7593 278.751 40.4897C279.103 40.2202 279.472 40.0854 279.859 40.0854C280.257 40.0854 280.574 40.1206 280.808 40.1909C281.054 40.2495 281.242 40.3257 281.371 40.4194C281.511 40.5132 281.605 40.6245 281.652 40.7534C281.71 40.8706 281.751 40.9878 281.775 41.105L268.134 69.687C269.037 69.4058 269.933 69.0601 270.824 68.6499C271.714 68.228 272.611 67.771 273.513 67.2788C274.415 66.7866 275.329 66.2651 276.255 65.7144C277.181 65.1636 278.13 64.6069 279.103 64.0444ZM246.214 66.769C246.214 66.7222 246.191 66.6987 246.144 66.6987C245.277 66.6987 244.398 66.7925 243.507 66.98C242.617 67.1675 241.755 67.4194 240.923 67.7358C240.091 68.0522 239.306 68.4214 238.568 68.8433C237.841 69.2534 237.203 69.687 236.652 70.144C236.101 70.6011 235.667 71.0581 235.351 71.5151C235.035 71.9839 234.876 72.4233 234.876 72.8335C234.876 73.5015 235.087 73.9937 235.509 74.3101C235.931 74.6382 236.482 74.8022 237.162 74.8022C237.876 74.8022 238.679 74.6265 239.57 74.2749C240.46 73.9233 241.333 73.4077 242.189 72.728C243.056 72.0483 243.847 71.2104 244.562 70.2144C245.288 69.2183 245.839 68.0698 246.214 66.769ZM306.138 64.0444C306.22 63.9976 306.32 63.9741 306.437 63.9741C306.578 63.9741 306.701 64.021 306.806 64.1147C306.923 64.1968 306.982 64.314 306.982 64.4663C306.982 64.6187 306.917 64.7827 306.788 64.9585C306.66 65.1343 306.443 65.3159 306.138 65.5034C305.564 65.8433 304.902 66.2358 304.152 66.6812C303.413 67.1147 302.611 67.5894 301.744 68.105C300.888 68.6206 299.98 69.1714 299.019 69.7573C298.058 70.3315 297.074 70.9233 296.066 71.5327C295.21 72.9038 294.285 74.269 293.288 75.6284C292.304 76.9878 291.29 78.2827 290.247 79.5132C289.204 80.7554 288.162 81.9097 287.119 82.9761C286.076 84.0425 285.074 84.9683 284.113 85.7534C283.152 86.5386 282.249 87.1538 281.406 87.5991C280.574 88.0444 279.853 88.2671 279.244 88.2671C278.798 88.2671 278.4 88.2261 278.048 88.144C277.697 88.062 277.404 87.9155 277.169 87.7046C276.923 87.5054 276.742 87.2358 276.624 86.896C276.496 86.5562 276.431 86.1284 276.431 85.6128C276.431 85.3198 276.613 84.9331 276.976 84.4526C277.339 83.9722 277.849 83.4214 278.505 82.8003C279.162 82.1909 279.941 81.5171 280.843 80.7788C281.746 80.0522 282.73 79.2905 283.796 78.4937C284.874 77.6968 286.017 76.8706 287.224 76.0151C288.431 75.1714 289.662 74.3276 290.915 73.4839C292.228 71.8667 293.704 70.0737 295.345 68.105C294.9 68.5151 294.413 68.9019 293.886 69.2651C293.359 69.6284 292.814 69.9507 292.251 70.2319C291.701 70.5015 291.15 70.7183 290.599 70.8823C290.048 71.0464 289.533 71.1284 289.052 71.1284C288.419 71.1284 287.833 71.064 287.294 70.9351C286.767 70.8062 286.31 70.6011 285.923 70.3198C285.537 70.0269 285.232 69.6519 285.009 69.1948C284.798 68.7378 284.693 68.1812 284.693 67.5249C284.693 66.8569 284.787 66.2183 284.974 65.6089C285.173 64.9878 285.437 64.4019 285.765 63.8511C286.093 63.3003 286.462 62.7847 286.872 62.3042C287.283 61.8237 287.71 61.3843 288.156 60.9858C288.589 60.5171 289.046 60.0718 289.527 59.6499C290.019 59.2163 290.546 58.812 291.109 58.437L279.103 65.5034C278.904 65.6089 278.74 65.6616 278.611 65.6616C278.318 65.6616 278.171 65.5151 278.171 65.2222C278.171 65.0581 278.247 64.8706 278.4 64.6597C278.54 64.4487 278.775 64.2437 279.103 64.0444C281.107 62.8257 282.988 61.7476 284.746 60.8101C286.515 59.8726 288.144 59.0874 289.632 58.4546C291.132 57.8101 292.492 57.3237 293.71 56.9956C294.941 56.6675 296.019 56.5034 296.945 56.5034C298.187 56.5034 299.136 56.8198 299.792 57.4526C300.449 58.0737 300.777 59.0405 300.777 60.353C300.777 60.9155 300.695 61.5308 300.531 62.1987C300.378 62.8667 300.156 63.5815 299.863 64.3433C299.581 65.0933 299.236 65.8784 298.826 66.6987C298.427 67.519 297.982 68.3569 297.49 69.2124C299.177 68.146 300.753 67.1792 302.218 66.312C303.695 65.4331 305.001 64.6772 306.138 64.0444ZM288.191 67.6655C288.191 68.6616 288.314 69.3706 288.56 69.7925C288.818 70.2026 289.246 70.4077 289.843 70.4077C290.277 70.4077 290.746 70.3022 291.249 70.0913C291.753 69.8804 292.263 69.6108 292.779 69.2827C293.294 68.9429 293.792 68.5679 294.273 68.1577C294.765 67.7358 295.216 67.3257 295.626 66.9272C296.037 66.5288 296.382 66.1597 296.663 65.8198C296.956 65.48 297.162 65.2104 297.279 65.0112C297.56 64.5894 297.788 64.2144 297.964 63.8862C298.14 63.5581 298.281 63.23 298.386 62.9019C298.492 62.562 298.562 62.2046 298.597 61.8296C298.632 61.4429 298.65 60.9858 298.65 60.4585C298.65 60.2827 298.597 60.0952 298.492 59.896C298.386 59.6968 298.251 59.5151 298.087 59.3511C297.935 59.187 297.765 59.0522 297.578 58.9468C297.402 58.8413 297.244 58.7886 297.103 58.7886C295.72 58.7886 294.49 59.0347 293.412 59.5269C292.345 60.0073 291.437 60.6577 290.687 61.478C289.937 62.2983 289.351 63.2417 288.929 64.3081C288.507 65.3745 288.261 66.4937 288.191 67.6655ZM279.349 86.5972C279.654 86.5972 280.076 86.3745 280.615 85.9292C281.154 85.4839 281.839 84.8218 282.671 83.9429C283.503 83.064 284.488 81.9624 285.624 80.6382C286.761 79.3257 288.079 77.7964 289.579 76.0503C288.818 76.6011 288.003 77.1812 287.136 77.7905C286.281 78.3999 285.431 79.0034 284.587 79.6011C283.755 80.2104 282.953 80.8081 282.179 81.394C281.417 81.98 280.738 82.5249 280.14 83.0288C279.554 83.5444 279.091 84.0015 278.751 84.3999C278.4 84.8101 278.224 85.144 278.224 85.4019C278.224 85.5073 278.242 85.6304 278.277 85.771C278.312 85.9116 278.376 86.0405 278.47 86.1577C278.552 86.2866 278.669 86.3921 278.822 86.4741C278.962 86.5562 279.138 86.5972 279.349 86.5972ZM315.859 70.8296C316.316 70.771 316.884 70.5894 317.564 70.2847C318.244 69.9683 318.988 69.564 319.796 69.0718C320.605 68.5679 321.449 67.9878 322.328 67.3315C323.218 66.6753 324.103 65.9722 324.982 65.2222C325.861 64.4722 326.71 63.687 327.531 62.8667C328.363 62.0464 329.119 61.2261 329.798 60.4058C329.845 60.3354 329.874 60.2124 329.886 60.0366C329.91 59.8491 329.956 59.6616 330.027 59.4741C330.109 59.2749 330.232 59.105 330.396 58.9644C330.572 58.812 330.835 58.7358 331.187 58.7358C331.48 58.7358 331.714 58.771 331.89 58.8413C332.066 58.9116 332.195 59.0112 332.277 59.1401C332.371 59.2573 332.429 59.4038 332.453 59.5796C332.476 59.7437 332.488 59.9312 332.488 60.1421C332.488 60.353 332.435 60.646 332.329 61.021C332.236 61.3843 332.107 61.8062 331.943 62.2866C331.779 62.7554 331.591 63.2651 331.38 63.8159C331.169 64.3667 330.953 64.9233 330.73 65.4858C330.519 66.0366 330.308 66.5874 330.097 67.1382C329.898 67.6772 329.722 68.1753 329.57 68.6323C329.722 68.5503 329.945 68.4214 330.238 68.2456C330.531 68.0698 330.865 67.8647 331.24 67.6304C331.626 67.396 332.031 67.144 332.453 66.8745C332.886 66.605 333.314 66.3354 333.736 66.0659L336.953 64.0444C337.035 63.9976 337.122 63.9741 337.216 63.9741C337.345 63.9741 337.462 64.0269 337.568 64.1323C337.673 64.2261 337.726 64.3491 337.726 64.5015C337.726 64.6655 337.662 64.8354 337.533 65.0112C337.415 65.1753 337.222 65.3394 336.953 65.5034L328.656 70.3726C328.562 70.4312 328.468 70.5249 328.374 70.6538C328.292 70.771 328.193 70.8882 328.076 71.0054C327.97 71.1226 327.835 71.2222 327.671 71.3042C327.519 71.3979 327.32 71.4448 327.074 71.4448C326.839 71.4448 326.646 71.3862 326.494 71.269C326.341 71.1401 326.265 70.9702 326.265 70.7593C326.265 70.4897 326.329 70.1382 326.458 69.7046C326.599 69.271 326.769 68.7964 326.968 68.2808C327.179 67.7534 327.413 67.2085 327.671 66.646C327.941 66.0718 328.199 65.5151 328.445 64.9761C328.703 64.4253 328.937 63.9097 329.148 63.4292C329.371 62.937 329.546 62.5151 329.675 62.1636C329.171 62.7964 328.579 63.4819 327.9 64.2202C327.22 64.9585 326.47 65.6968 325.65 66.4351C324.841 67.1616 323.98 67.8706 323.066 68.562C322.152 69.2417 321.208 69.8452 320.236 70.3726C319.263 70.8882 318.279 71.3042 317.283 71.6206C316.287 71.937 315.296 72.0952 314.312 72.0952C313.749 72.0952 313.363 71.9429 313.152 71.6382C312.941 71.3452 312.835 70.9468 312.835 70.4429C312.835 69.9858 312.912 69.4468 313.064 68.8257C313.216 68.2046 313.415 67.5425 313.662 66.8394C313.908 66.1362 314.183 65.4155 314.488 64.6772C314.804 63.939 315.109 63.23 315.402 62.5503C315.706 61.8706 315.988 61.2378 316.246 60.6519C316.515 60.0659 316.732 59.5737 316.896 59.1753C316.345 59.4683 315.689 59.8315 314.927 60.2651C314.177 60.6987 313.345 61.1909 312.431 61.7417C311.517 62.2808 310.527 62.8726 309.46 63.5171C308.406 64.1499 307.298 64.812 306.138 65.5034C306.009 65.5737 305.892 65.6089 305.787 65.6089C305.646 65.6089 305.523 65.562 305.417 65.4683C305.312 65.3745 305.259 65.2515 305.259 65.0991C305.259 64.9585 305.329 64.8003 305.47 64.6245C305.599 64.437 305.822 64.2437 306.138 64.0444C307.626 63.1421 309.038 62.3159 310.374 61.5659C311.71 60.8159 312.917 60.1772 313.996 59.6499C315.085 59.1108 316.011 58.6948 316.773 58.4019C317.546 58.0972 318.103 57.9448 318.443 57.9448C319.146 57.9448 319.638 58.0854 319.919 58.3667C320.212 58.6479 320.359 59.0347 320.359 59.5269C320.359 60.0308 320.23 60.6167 319.972 61.2847C319.726 61.9409 319.415 62.6265 319.04 63.3413C318.665 64.0562 318.261 64.7769 317.828 65.5034C317.394 66.23 316.99 66.9155 316.615 67.5601C316.24 68.2046 315.923 68.7788 315.665 69.2827C315.419 69.7866 315.296 70.1733 315.296 70.4429C315.296 70.7124 315.431 70.8472 315.701 70.8472C315.794 70.8472 315.847 70.8413 315.859 70.8296ZM367.328 65.5034C366.671 65.8901 366.033 66.271 365.412 66.646C364.802 67.0093 364.187 67.396 363.566 67.8062C362.945 68.2163 362.306 68.6558 361.65 69.1245C361.005 69.5933 360.326 70.1206 359.611 70.7065C359.025 72.23 358.386 73.8062 357.695 75.4351C357.015 77.064 356.294 78.6519 355.533 80.1987C354.783 81.7573 353.997 83.228 353.177 84.6108C352.357 86.0054 351.513 87.2241 350.646 88.2671C349.79 89.3101 348.917 90.1362 348.027 90.7456C347.148 91.3667 346.269 91.6772 345.39 91.6772C344.945 91.6772 344.564 91.6245 344.247 91.519C343.931 91.4136 343.667 91.2729 343.456 91.0972C343.246 90.9214 343.087 90.7222 342.982 90.4995C342.888 90.2886 342.841 90.0718 342.841 89.8491C342.841 89.5093 342.941 89.0112 343.14 88.355C343.339 87.7104 343.662 86.9487 344.107 86.0698C344.552 85.1909 345.126 84.2065 345.829 83.1167C346.544 82.0269 347.406 80.8608 348.413 79.6187C349.421 78.3882 350.587 77.0991 351.912 75.7515C353.247 74.4038 354.765 73.0269 356.464 71.6206C357.144 70.0386 357.724 68.7085 358.204 67.6304C358.685 66.5522 359.083 65.6558 359.4 64.9409C359.728 64.2261 359.986 63.6577 360.173 63.2358C360.361 62.8022 360.507 62.4448 360.613 62.1636C360.121 62.7964 359.535 63.4819 358.855 64.2202C358.175 64.9585 357.425 65.6968 356.605 66.4351C355.796 67.1733 354.929 67.8823 354.003 68.562C353.089 69.2417 352.146 69.8452 351.173 70.3726C350.201 70.8882 349.21 71.3042 348.203 71.6206C347.206 71.937 346.222 72.0952 345.249 72.0952C344.687 72.0952 344.3 71.9429 344.089 71.6382C343.878 71.3452 343.773 70.9468 343.773 70.4429C343.773 69.9858 343.849 69.4468 344.001 68.8257C344.165 68.1929 344.371 67.5249 344.617 66.8218C344.863 66.1069 345.138 65.3804 345.443 64.6421C345.759 63.8921 346.07 63.1714 346.374 62.48C346.679 61.7886 346.96 61.1499 347.218 60.564C347.488 59.978 347.704 59.4858 347.869 59.0874C347.341 59.4272 346.673 59.8374 345.865 60.3179C345.068 60.7866 344.189 61.3022 343.228 61.8647C342.267 62.4155 341.247 63.0015 340.169 63.6226C339.103 64.2437 338.037 64.8706 336.97 65.5034C336.806 65.5972 336.66 65.644 336.531 65.644C336.39 65.644 336.279 65.603 336.197 65.521C336.103 65.4272 336.056 65.3101 336.056 65.1694C336.056 65.0054 336.126 64.8296 336.267 64.6421C336.396 64.4429 336.63 64.2437 336.97 64.0444C338.505 63.1421 339.847 62.3511 340.996 61.6714C342.156 60.98 343.163 60.3823 344.019 59.8784C344.874 59.3745 345.601 58.9526 346.199 58.6128C346.796 58.2729 347.306 58.0034 347.728 57.8042C348.15 57.605 348.501 57.4644 348.783 57.3823C349.064 57.2886 349.322 57.2417 349.556 57.2417C349.908 57.2417 350.195 57.3179 350.417 57.4702C350.64 57.6108 350.816 57.7983 350.945 58.0327C351.085 58.2554 351.179 58.5015 351.226 58.771C351.273 59.0288 351.296 59.2808 351.296 59.5269C351.296 60.0308 351.167 60.6167 350.91 61.2847C350.663 61.9409 350.353 62.6265 349.978 63.3413C349.603 64.0562 349.199 64.7769 348.765 65.5034C348.331 66.23 347.927 66.9155 347.552 67.5601C347.177 68.2046 346.861 68.7788 346.603 69.2827C346.357 69.7866 346.234 70.1733 346.234 70.4429C346.234 70.7124 346.369 70.8472 346.638 70.8472C347.06 70.8472 347.605 70.7065 348.273 70.4253C348.953 70.1323 349.703 69.7397 350.523 69.2476C351.343 68.7437 352.21 68.1577 353.124 67.4897C354.038 66.8101 354.947 66.0835 355.849 65.3101C356.751 64.5366 357.619 63.7339 358.451 62.9019C359.294 62.0698 360.056 61.2378 360.736 60.4058C360.783 60.3354 360.812 60.2124 360.824 60.0366C360.847 59.8491 360.894 59.6616 360.964 59.4741C361.046 59.2749 361.169 59.105 361.333 58.9644C361.509 58.812 361.773 58.7358 362.124 58.7358C362.417 58.7358 362.652 58.771 362.828 58.8413C363.003 58.9116 363.132 59.0112 363.214 59.1401C363.308 59.2573 363.367 59.4038 363.39 59.5796C363.413 59.7437 363.425 59.9312 363.425 60.1421C363.425 60.1187 363.419 60.1069 363.408 60.1069C363.384 60.1069 363.296 60.3237 363.144 60.7573C362.992 61.1792 362.787 61.771 362.529 62.5327C362.283 63.2827 361.978 64.1733 361.615 65.2046C361.263 66.2358 360.865 67.355 360.419 68.562C361.486 67.7886 362.581 67.0327 363.706 66.2944C364.843 65.5444 366.05 64.7944 367.328 64.0444C367.398 64.0093 367.468 63.9917 367.538 63.9917C367.667 63.9917 367.785 64.0444 367.89 64.1499C368.007 64.2554 368.066 64.3901 368.066 64.5542C368.066 64.6948 368.007 64.8472 367.89 65.0112C367.785 65.1753 367.597 65.3394 367.328 65.5034ZM351.56 78.2124C351.162 78.6343 350.746 79.1733 350.312 79.8296C349.878 80.4858 349.451 81.189 349.029 81.939C348.607 82.7007 348.203 83.4741 347.816 84.2593C347.429 85.0562 347.089 85.8003 346.796 86.4917C346.515 87.1831 346.287 87.7925 346.111 88.3198C345.947 88.8589 345.865 89.2456 345.865 89.48C345.865 89.7495 345.994 89.8843 346.251 89.8843C346.556 89.8843 346.878 89.7378 347.218 89.4448C347.57 89.1636 347.927 88.7769 348.29 88.2847C348.665 87.8042 349.046 87.2417 349.433 86.5972C349.82 85.9644 350.206 85.2905 350.593 84.5757C350.98 83.8608 351.361 83.1284 351.736 82.3784C352.122 81.6401 352.492 80.9312 352.843 80.2515C353.288 79.1851 353.699 78.189 354.074 77.2632C354.46 76.3374 354.829 75.4644 355.181 74.644C354.079 75.6753 352.872 76.8647 351.56 78.2124ZM367.345 65.5034C367.228 65.5854 367.093 65.6265 366.941 65.6265C366.788 65.6265 366.665 65.5854 366.572 65.5034C366.478 65.4097 366.431 65.2925 366.431 65.1519C366.431 64.9995 366.501 64.8296 366.642 64.6421C366.771 64.4429 367.005 64.2437 367.345 64.0444L371.792 61.4253C372.121 60.4995 372.542 59.7026 373.058 59.0347C373.585 58.355 374.16 57.7983 374.781 57.3647C375.413 56.9194 376.07 56.5913 376.749 56.3804C377.441 56.1577 378.109 56.0464 378.753 56.0464C379.41 56.0464 379.949 56.2222 380.371 56.5737C380.804 56.9136 381.021 57.4468 381.021 58.1733C381.021 58.6187 380.857 59.0874 380.529 59.5796C380.212 60.0601 379.773 60.5405 379.21 61.021C378.66 61.4897 378.009 61.9292 377.259 62.3394C376.509 62.7495 375.712 63.0952 374.869 63.3765C374.869 63.939 374.857 64.4722 374.833 64.9761C374.822 65.48 374.816 65.9546 374.816 66.3999C374.816 66.7749 374.828 67.1206 374.851 67.437C374.874 67.7417 374.921 68.0054 374.992 68.228C375.074 68.439 375.179 68.6089 375.308 68.7378C375.449 68.855 375.624 68.9136 375.835 68.9136C376.163 68.9136 376.556 68.7847 377.013 68.5269C377.482 68.2573 378.068 67.9175 378.771 67.5073C379.404 67.1323 380.212 66.6636 381.197 66.1011C382.181 65.5386 383.382 64.853 384.8 64.0444C384.847 64.0093 384.912 63.9917 384.994 63.9917C385.122 63.9917 385.234 64.0503 385.328 64.1675C385.433 64.2729 385.486 64.4077 385.486 64.5718C385.486 64.7124 385.433 64.8647 385.328 65.0288C385.234 65.1929 385.058 65.3511 384.8 65.5034C383.64 66.1948 382.515 66.8979 381.425 67.6128C380.335 68.3159 379.304 68.9604 378.331 69.5464C377.371 70.1206 376.48 70.5952 375.66 70.9702C374.839 71.3335 374.124 71.5151 373.515 71.5151C373.105 71.5151 372.742 71.4272 372.425 71.2515C372.121 71.0757 371.857 70.7944 371.634 70.4077C371.423 70.021 371.259 69.5171 371.142 68.896C371.037 68.2632 370.984 67.4956 370.984 66.5933C370.984 66.4526 370.99 66.23 371.001 65.9253C371.025 65.6089 371.054 65.2749 371.089 64.9233C371.136 64.5601 371.189 64.2085 371.247 63.8687C371.306 63.5288 371.376 63.2651 371.458 63.0776C371.376 63.1245 371.253 63.1948 371.089 63.2886C370.937 63.3823 370.755 63.4937 370.544 63.6226C370.333 63.7397 370.111 63.8687 369.876 64.0093C369.642 64.1499 369.408 64.2905 369.173 64.4312L367.345 65.5034ZM379.122 58.314C379.146 58.2437 379.158 58.1675 379.158 58.0854C379.158 57.7925 379.105 57.5757 378.999 57.4351C378.906 57.2944 378.742 57.2241 378.507 57.2241C378.238 57.2241 377.927 57.3296 377.576 57.5405C377.224 57.7397 376.878 58.0386 376.538 58.437C376.21 58.8354 375.912 59.3335 375.642 59.9312C375.384 60.5288 375.208 61.2144 375.115 61.9878C375.595 61.7417 376.064 61.4604 376.521 61.144C376.978 60.8159 377.388 60.4878 377.751 60.1597C378.126 59.8198 378.431 59.4917 378.665 59.1753C378.912 58.8472 379.064 58.5601 379.122 58.314ZM406.07 59.8784C405.624 59.8784 405.068 60.0073 404.4 60.2651C403.732 60.5112 402.999 60.8569 402.203 61.3022C401.406 61.7358 400.574 62.2515 399.706 62.8491C398.851 63.4468 398.007 64.0972 397.175 64.8003C396.355 65.5034 395.57 66.2476 394.82 67.0327C394.081 67.8062 393.437 68.5854 392.886 69.3706C392.828 69.4292 392.798 69.564 392.798 69.7749C392.798 69.9741 392.763 70.1851 392.693 70.4077C392.634 70.6304 392.511 70.8296 392.324 71.0054C392.136 71.1812 391.826 71.269 391.392 71.269C391.087 71.269 390.847 71.2339 390.671 71.1636C390.507 71.0933 390.378 70.9995 390.285 70.8823C390.203 70.7534 390.15 70.6069 390.126 70.4429C390.103 70.2671 390.091 70.0737 390.091 69.8628C390.091 69.6519 390.15 69.3413 390.267 68.9312C390.384 68.521 390.537 68.0464 390.724 67.5073C390.912 66.9683 391.122 66.3882 391.357 65.7671C391.591 65.146 391.826 64.5249 392.06 63.9038C392.306 63.2827 392.535 62.6792 392.746 62.0933C392.968 61.5073 393.156 60.98 393.308 60.5112L384.818 65.5034C384.759 65.5151 384.712 65.5269 384.677 65.5386C384.63 65.5386 384.595 65.5386 384.572 65.5386C384.408 65.5386 384.29 65.4976 384.22 65.4155C384.138 65.3218 384.097 65.2104 384.097 65.0815C384.097 64.9175 384.162 64.7417 384.29 64.5542C384.408 64.355 384.583 64.1851 384.818 64.0444C386.576 63.0015 388.023 62.146 389.16 61.478C390.308 60.7983 391.228 60.2534 391.919 59.8433C392.611 59.4331 393.126 59.1284 393.466 58.9292C393.818 58.73 394.081 58.5835 394.257 58.4897C394.421 58.396 394.568 58.3315 394.697 58.2964C394.837 58.2612 394.99 58.2437 395.154 58.2437C395.494 58.2437 395.769 58.3433 395.98 58.5425C396.203 58.7417 396.314 58.9644 396.314 59.2104C396.314 59.4565 396.238 59.7964 396.085 60.23C395.933 60.6519 395.746 61.1147 395.523 61.6187C395.3 62.1226 395.072 62.6382 394.837 63.1655C394.603 63.6812 394.404 64.1616 394.24 64.6069C394.169 64.7827 394.111 64.9292 394.064 65.0464C394.029 65.1519 393.982 65.2749 393.923 65.4155C393.876 65.5562 393.806 65.7378 393.712 65.9604C393.619 66.1714 393.484 66.4702 393.308 66.8569C393.8 66.2241 394.374 65.562 395.031 64.8706C395.699 64.1792 396.419 63.5054 397.193 62.8491C397.978 62.1812 398.81 61.5483 399.689 60.9507C400.579 60.353 401.494 59.8315 402.431 59.3862C403.38 58.9292 404.347 58.5718 405.331 58.314C406.316 58.0444 407.294 57.9097 408.267 57.9097C408.865 57.9097 409.275 58.0386 409.497 58.2964C409.732 58.5425 409.849 58.8823 409.849 59.3159C409.849 59.6675 409.785 60.0952 409.656 60.5991C409.527 61.103 409.351 61.6538 409.128 62.2515C408.906 62.8374 408.654 63.4702 408.372 64.1499C408.091 64.8179 407.792 65.4976 407.476 66.189C407.171 66.8687 406.861 67.5542 406.544 68.2456C406.24 68.937 405.953 69.5991 405.683 70.2319C406.351 69.9624 407.048 69.6108 407.775 69.1772C408.501 68.7437 409.275 68.2573 410.095 67.7183C410.927 67.1792 411.8 66.5991 412.714 65.978C413.64 65.3452 414.63 64.7007 415.685 64.0444C415.767 63.9976 415.878 63.9741 416.019 63.9741C416.3 63.9741 416.441 64.1323 416.441 64.4487C416.441 64.6128 416.376 64.7944 416.247 64.9937C416.119 65.1812 415.931 65.3511 415.685 65.5034C414.29 66.3706 413.031 67.1968 411.906 67.9819C410.781 68.7671 409.749 69.4644 408.812 70.0737C407.886 70.6831 407.037 71.1636 406.263 71.5151C405.501 71.8784 404.792 72.0601 404.136 72.0601C403.738 72.0601 403.398 72.0073 403.117 71.9019C402.835 71.8081 402.601 71.6792 402.413 71.5151C402.238 71.3511 402.103 71.1577 402.009 70.9351C401.927 70.7007 401.886 70.4604 401.886 70.2144C401.886 69.9448 401.939 69.6812 402.044 69.4233C402.162 69.1538 402.32 68.8667 402.519 68.562C402.882 67.7651 403.287 66.9331 403.732 66.0659C404.177 65.187 404.587 64.355 404.962 63.5698C405.337 62.7847 405.654 62.0874 405.912 61.478C406.169 60.8687 406.298 60.4292 406.298 60.1597C406.298 59.9722 406.222 59.8784 406.07 59.8784Z" fill="#4A2E0C"/>
</g>
<defs>
<filter id="filter0_d_116_182" x="55.3333" y="32.4684" width="165.584" height="54.0508" filterUnits="userSpaceOnUse" color-interpolation-filters="sRGB">
<feFlood flood-opacity="0" result="BackgroundImageFix"/>
<feColorMatrix in="SourceAlpha" type="matrix" values="0 0 0 0 0 0 0 0 0 0 0 0 0 0 0 0 0 0 127 0" result="hardAlpha"/>
<feOffset dx="-5" dy="5"/>
<feGaussianBlur stdDeviation="2.5"/>
<feComposite in2="hardAlpha" operator="out"/>
<feColorMatrix type="matrix" values="0 0 0 0 0 0 0 0 0 0 0 0 0 0 0 0 0 0 0.25 0"/>
<feBlend mode="normal" in2="BackgroundImageFix" result="effect1_dropShadow_116_182"/>
<feBlend mode="normal" in="SourceGraphic" in2="effect1_dropShadow_116_182" result="shape"/>
</filter>
<filter id="filter1_d_116_182" x="222.802" y="38.6616" width="193.639" height="63.0156" filterUnits="userSpaceOnUse" color-interpolation-filters="sRGB">
<feFlood flood-opacity="0" result="BackgroundImageFix"/>
<feColorMatrix in="SourceAlpha" type="matrix" values="0 0 0 0 0 0 0 0 0 0 0 0 0 0 0 0 0 0 127 0" result="hardAlpha"/>
<feOffset dx="-5" dy="5"/>
<feGaussianBlur stdDeviation="2.5"/>
<feComposite in2="hardAlpha" operator="out"/>
<feColorMatrix type="matrix" values="0 0 0 0 0 0 0 0 0 0 0 0 0 0 0 0 0 0 0.25 0"/>
<feBlend mode="normal" in2="BackgroundImageFix" result="effect1_dropShadow_116_182"/>
<feBlend mode="normal" in="SourceGraphic" in2="effect1_dropShadow_116_182" result="shape"/>
</filter>
</defs>
</svg>
