<svg width="24" height="24" viewBox="0 0 24 24" fill="none" xmlns="http://www.w3.org/2000/svg">
<path d="M7.60929e-09 6.832L11.6225 14.22C11.7391 14.2941 11.8686 14.3328 12 14.3328C12.1314 14.3328 12.2609 14.2941 12.3775 14.22L24 6.83333V19.6667C24.0001 20.7735 23.6536 21.8384 23.0316 22.643C22.4097 23.4475 21.5594 23.9307 20.6553 23.9933L20.4545 24H3.54545C2.63985 24.0001 1.76855 23.5766 1.11029 22.8164C0.452037 22.0563 0.0567258 21.0171 0.00545468 19.912L7.60929e-09 19.6667V6.832ZM3.54545 9.30025e-09H20.4545C21.3602 -7.24623e-05 22.2315 0.423405 22.8897 1.18356C23.548 1.94372 23.9433 2.98293 23.9945 4.088L24 4.33333V4.57867L12 12.2053L7.60929e-09 4.57867V4.33333C-5.92873e-05 3.22648 0.346423 2.16156 0.968369 1.35703C1.59032 0.552489 2.44058 0.0693316 3.34473 0.00666683L3.54545 9.30025e-09H20.4545H3.54545Z" fill="#512E0B"/>
</svg>
